<svg width="40" height="40" viewBox="0 0 40 40" fill="none" xmlns="http://www.w3.org/2000/svg">
<path d="M19.9074 -7.62939e-06C30.9019 -7.62939e-06 39.8148 8.91283 39.8148 19.9074C39.8148 30.9019 30.9019 39.8148 19.9074 39.8148C8.91284 39.8148 0 30.9019 0 19.9074C0 8.91283 8.91284 -7.62939e-06 19.9074 -7.62939e-06Z" fill="url(#paint0_radial)"/>
<path fillRule="evenodd" clipRule="evenodd" d="M18.6739 27.6198C20.3779 27.6198 21.75 27.278 22.7902 26.5944C23.8304 25.9109 24.5883 24.9846 25.0638 23.8156L25.1157 23.6851C25.2174 23.4231 25.3074 23.1542 25.3857 22.8784L25.3906 22.8603L25.3907 27.2929H29.2544V12.5219H25.6582C25.6561 12.5383 25.6314 12.7312 25.5839 13.1014C25.5344 13.4878 25.4898 13.9782 25.4502 14.5726L25.432 14.869C25.4045 15.3615 25.3907 15.8472 25.3907 16.3261L25.3906 17.3319L25.361 17.2325L25.3223 17.11C25.0446 16.2555 24.6315 15.4642 24.083 14.736C23.5084 13.9732 22.7555 13.359 21.8243 12.8934C20.8931 12.4278 19.7736 12.195 18.4659 12.195C16.9997 12.195 15.6672 12.5169 14.4685 13.1609C13.2698 13.8048 12.3188 14.7063 11.6154 15.8654C10.912 17.0245 10.5603 18.3669 10.5603 19.8925C10.5603 21.4578 10.9169 22.815 11.6302 23.9642C12.3435 25.1134 13.3094 26.0099 14.528 26.6539C15.7465 27.2978 17.1285 27.6198 18.6739 27.6198ZM19.7142 24.618C18.0696 24.618 16.7917 24.1871 15.8802 23.3252C14.9688 22.4633 14.5131 21.3191 14.5131 19.8925C14.5131 18.9415 14.7311 18.1142 15.1669 17.4109C15.6028 16.7075 16.2121 16.1577 16.9947 15.7614C17.7774 15.3651 18.6839 15.167 19.7142 15.167C20.8832 15.167 21.8936 15.3651 22.7456 15.7614C23.5976 16.1577 24.2515 16.7124 24.7072 17.4257C25.1629 18.139 25.3907 18.9613 25.3907 19.8925C25.3907 20.903 25.1579 21.7599 24.6923 22.4633C24.2267 23.1667 23.5728 23.7017 22.7308 24.0682C21.8887 24.4348 20.8832 24.618 19.7142 24.618Z" fill="white"/>
<defs>
<radialGradient id="paint0_radial" cx="0" cy="0" r="1" gradientUnits="userSpaceOnUse" gradientTransform="translate(19.9074 35) rotate(-90) scale(35)">
<stop stop-color="#A129FF"/>
<stop offset="1" stop-color="#7B61FF"/>
</radialGradient>
</defs>
</svg>
