<svg xmlns="http://www.w3.org/2000/svg" width="16" height="9" viewBox="0 0 16 9" fill="none">
<path fillRule="evenodd" clipRule="evenodd" d="M15.851 3.26597C15.7885 3.21388 15.6812 3.06518 15.6613 3.00716C15.6358 2.96209 15.5543 2.86413 15.4694 2.7516C15.3675 2.6485 15.0536 2.2607 15.0721 1.9965C15.0496 1.91959 14.8399 1.34827 14.0425 0.813928L14.0436 0.812849C13.9244 0.742952 13.9295 0.627718 13.9355 0.583459C13.9366 0.578601 13.9378 0.573474 13.9386 0.568346C13.9386 0.566997 13.9395 0.564568 13.9395 0.564568L13.9383 0.564028C13.9409 0.546217 13.9434 0.528136 13.9434 0.509515C13.9434 0.326813 13.8163 0.178654 13.6599 0.178654C13.6343 0.178654 13.611 0.183782 13.5875 0.190798C13.5424 0.0785322 13.4447 0 13.3306 0C13.219 0 13.1242 0.0755636 13.0777 0.184321C12.9312 0.417489 12.8253 0.483607 12.7845 0.500069C12.7811 0.501149 12.7768 0.501958 12.7734 0.503038C12.7623 0.514912 11.6763 0.486036 10.9405 0.280125C10.8835 0.259075 10.8264 0.242073 10.7691 0.226961C10.7645 0.225611 10.7597 0.224262 10.7552 0.222373V0.223722C10.4222 0.139253 10.0856 0.159223 9.73613 0.306572C9.36797 0.461748 8.98505 0.459859 8.59191 0.384025C8.05258 0.279855 7.5107 0.170288 6.96485 0.112536C5.6909 -0.0221294 4.49502 0.199434 3.51855 1.03387C2.91536 1.54905 2.15747 1.72393 1.61928 2.30253C1.16397 2.79289 1.0967 3.78547 0.953917 4.42992C0.869612 4.80774 0.782468 5.18609 0.670062 5.55689C0.502303 6.11013 0.471079 6.71491 0.0245735 7.16748C-0.0489452 7.42521 0.0651648 7.84485 0.0731128 7.87589C0.306442 8.81261 0.520186 8.9605 1.52504 8.87441C1.62382 8.86604 1.73566 8.86766 1.81542 8.8234C1.88667 8.784 1.96813 8.68631 1.96615 8.61614C1.95962 8.38055 1.75155 8.34897 1.56194 8.31308C1.32293 8.26828 1.28092 8.20054 1.41433 8.00866C1.50772 7.874 1.62722 7.74905 1.75751 7.64569C2.29968 7.21444 2.73909 6.71059 3.05757 6.10689C3.13506 5.96008 3.25003 5.85105 3.38287 5.77549C3.70732 5.40874 3.99203 4.99341 4.12146 4.56701C4.07094 4.76887 3.94462 5.17989 3.5969 5.6867C3.52537 5.89504 3.76664 6.1811 3.82483 6.29445C4.27673 6.87359 4.70791 7.44113 4.99971 8.04321C5.04229 8.13011 5.14562 8.20702 5.23986 8.25209C5.71986 8.48094 6.23136 8.52573 6.75479 8.4356C6.83229 8.4221 6.93987 8.34222 6.95406 8.27718C6.96967 8.20594 6.91574 8.08558 6.85159 8.04186C6.73521 7.96306 6.59214 7.91475 6.45305 7.87346C6.02983 7.74662 6.04118 7.85673 6.06616 7.34802C6.0673 7.32778 6.07382 7.30835 6.07382 7.28838C6.07524 6.97695 6.26372 6.46852 6.21518 6.09744C6.55893 6.26827 7.11217 6.45286 7.85076 6.41184C7.89277 5.92392 8.00773 5.56742 8.10197 5.34019C8.10793 5.33884 8.11418 5.33749 8.12014 5.33614C8.05684 5.52181 8.0154 5.71882 7.99269 5.92311C7.98616 5.96629 7.98105 6.01163 7.97651 6.05939C7.97594 6.07208 7.97424 6.08449 7.9731 6.0969C7.96828 6.1614 7.96657 6.23022 7.96657 6.30336C7.96572 6.33682 7.9626 6.37001 7.9626 6.40348C7.9643 6.40348 7.96601 6.40321 7.96714 6.40294C7.9819 6.83257 8.09034 7.39579 8.40087 8.10501C8.60695 8.57539 9.00776 8.8763 9.51728 8.96589C9.89878 9.03282 10.305 8.98263 10.6993 8.97102C10.8389 8.9667 10.9621 8.91759 10.9621 8.7392C10.9621 8.56514 10.8636 8.48633 10.7061 8.45989C10.5369 8.43155 10.3663 8.40456 10.1948 8.39917C9.91666 8.39053 9.75373 8.24885 9.76849 8.00057C9.80823 7.34155 9.7841 6.66039 9.96094 6.03241C9.97769 5.97222 9.99926 5.91393 10.0191 5.85483C10.1191 6.14521 10.286 6.31226 10.286 6.31226V6.31199C10.7027 6.79614 11.1449 7.26004 11.7674 7.51318C11.9834 7.60089 12.0637 7.71639 12.018 7.92662C11.9951 8.03565 11.9477 8.14981 11.9627 8.25506C11.9834 8.40456 12.0095 8.59833 12.114 8.67713C12.1833 8.7303 12.4438 8.66175 12.5315 8.57107C13.1384 7.93877 13.3607 7.31645 12.9321 6.5824C12.6976 6.18164 12.3771 5.82326 12.068 5.46676C11.8798 5.24951 11.7805 5.03631 11.8676 4.7597C11.9232 4.58185 11.9775 4.4005 12.0328 4.21888L12.0334 4.21807C12.1154 3.94712 12.2752 3.74769 12.2752 3.74769C12.2752 3.74769 12.345 3.65566 12.569 3.41602C12.5696 3.41602 12.5696 3.41602 12.5696 3.41602C12.6241 3.53665 12.7498 3.76658 12.9082 3.74634C12.8915 3.73095 12.8268 3.55095 12.8268 3.41656C12.8656 3.41736 12.9068 3.41844 12.9491 3.41979C13.0053 3.54285 13.1813 3.87479 13.4251 3.84052C13.4021 3.82298 13.3181 3.60304 13.3275 3.44138C13.7359 3.47485 14.2017 3.54852 14.5571 3.70613C14.6054 3.72448 14.8455 3.93093 15.0102 3.92472C15.1847 3.94739 15.2971 4.0073 15.3732 3.91554C15.3766 3.90583 15.4604 3.97141 15.5208 3.92121C15.589 3.86832 15.7138 3.76955 15.7729 3.65134C15.793 3.65458 16.0025 3.57443 16 3.49752C15.973 3.43086 16.0179 3.43005 15.851 3.26597Z" fill="#BD2150"/>
</svg>