<svg id="icon-categories" xmlns="http://www.w3.org/2000/svg" width="17" height="17" viewBox="0 0 17 17" fill="none">
<path fillRule="evenodd" clipRule="evenodd" d="M7.41494 10.0111C7.74245 10.2078 8.11728 10.3119 8.49935 10.3121C8.88142 10.3119 9.25625 10.2078 9.58375 10.0111L16.6554 5.76764C16.7601 5.70467 16.8468 5.61568 16.9069 5.50931C16.9671 5.40295 16.9987 5.28283 16.9987 5.16063C16.9987 5.03843 16.9671 4.91831 16.9069 4.81195C16.8468 4.70558 16.7601 4.61659 16.6554 4.55362L9.58375 0.310206C9.25625 0.113461 8.8814 0.00952148 8.49935 0.00952148C8.1173 0.00952148 7.74244 0.113461 7.41494 0.310206L0.3433 4.55362C0.238577 4.61659 0.151926 4.70558 0.0917701 4.81195C0.0316144 4.91831 0 5.03843 0 5.16063C0 5.28283 0.0316144 5.40295 0.0917701 5.50931C0.151926 5.61568 0.238577 5.70467 0.3433 5.76764L7.41494 10.0111ZM8.1452 8.79632L2.085 5.16063L8.1452 1.52494C8.25223 1.46091 8.37463 1.4271 8.49935 1.4271C8.62407 1.4271 8.74646 1.46091 8.8535 1.52494L14.9137 5.16063L8.8535 8.79632C8.74646 8.86035 8.62407 8.89416 8.49935 8.89416C8.37463 8.89416 8.25223 8.86035 8.1452 8.79632ZM15.9259 7.62198L8.49936 12.0786L1.07286 7.62198C0.91178 7.52533 0.7189 7.49663 0.536655 7.54219C0.35441 7.58775 0.197729 7.70384 0.101079 7.86492C0.00442878 8.02601 -0.0242726 8.21889 0.0212886 8.40113C0.0668499 8.58338 0.182942 8.74006 0.344025 8.83671L8.1353 13.5115C8.24546 13.5777 8.37156 13.6126 8.50007 13.6126C8.62859 13.6126 8.75468 13.5777 8.86485 13.5115L16.6561 8.83671C16.8172 8.74006 16.9333 8.58338 16.9789 8.40113C17.0244 8.21889 16.9957 8.02601 16.8991 7.86492C16.8024 7.70384 16.6457 7.58775 16.4635 7.54219C16.2812 7.49663 16.0884 7.52533 15.9273 7.62198H15.9259ZM15.9259 10.8575L8.49936 15.3134L1.07286 10.8575C0.993101 10.8096 0.904695 10.7779 0.812693 10.7643C0.72069 10.7506 0.626892 10.7551 0.536653 10.7777C0.446415 10.8003 0.361503 10.8404 0.286767 10.8957C0.21203 10.9511 0.148933 11.0207 0.101077 11.1004C0.0532204 11.1802 0.0215428 11.2686 0.00785238 11.3606C-0.00583803 11.4526 -0.00127309 11.5464 0.0212865 11.6366C0.0668478 11.8189 0.182939 11.9756 0.344023 12.0722L8.1353 16.747C8.24546 16.8132 8.37156 16.8481 8.50007 16.8481C8.62859 16.8481 8.75468 16.8132 8.86484 16.747L16.6561 12.0722C16.8172 11.9756 16.9333 11.8189 16.9789 11.6366C17.0244 11.4544 16.9957 11.2615 16.8991 11.1004C16.8024 10.9393 16.6457 10.8233 16.4635 10.7777C16.2812 10.7321 16.0884 10.7608 15.9273 10.8575H15.9259Z" fill="#5E5E5E"/>
</svg>