<svg width="20" height="20" viewBox="0 0 20 20" fill="none" xmlns="http://www.w3.org/2000/svg">
<path d="M15.8333 0.833252H4.16667C3.062 0.834575 2.00296 1.27399 1.22185 2.0551C0.440735 2.83622 0.00132321 3.89526 0 4.99992L0 11.6666C0.00132321 12.7712 0.440735 13.8303 1.22185 14.6114C2.00296 15.3925 3.062 15.8319 4.16667 15.8333H9.16667V17.4999H5.83333C5.61232 17.4999 5.40036 17.5877 5.24408 17.744C5.0878 17.9003 5 18.1122 5 18.3333C5 18.5543 5.0878 18.7662 5.24408 18.9225C5.40036 19.0788 5.61232 19.1666 5.83333 19.1666H14.1667C14.3877 19.1666 14.5996 19.0788 14.7559 18.9225C14.9122 18.7662 15 18.5543 15 18.3333C15 18.1122 14.9122 17.9003 14.7559 17.744C14.5996 17.5877 14.3877 17.4999 14.1667 17.4999H10.8333V15.8333H15.8333C16.938 15.8319 17.997 15.3925 18.7782 14.6114C19.5593 13.8303 19.9987 12.7712 20 11.6666V4.99992C19.9987 3.89526 19.5593 2.83622 18.7782 2.0551C17.997 1.27399 16.938 0.834575 15.8333 0.833252ZM18.3333 11.6666C18.3333 12.3296 18.0699 12.9655 17.6011 13.4344C17.1323 13.9032 16.4964 14.1666 15.8333 14.1666H4.16667C3.50363 14.1666 2.86774 13.9032 2.3989 13.4344C1.93006 12.9655 1.66667 12.3296 1.66667 11.6666V4.99992C1.66667 4.33688 1.93006 3.70099 2.3989 3.23215C2.86774 2.76331 3.50363 2.49992 4.16667 2.49992H15.8333C16.4964 2.49992 17.1323 2.76331 17.6011 3.23215C18.0699 3.70099 18.3333 4.33688 18.3333 4.99992V11.6666ZM16.6667 8.33325C16.6667 8.55427 16.5789 8.76623 16.4226 8.92251C16.2663 9.07879 16.0543 9.16658 15.8333 9.16658H13.3625L11.9458 11.2958C11.8695 11.4102 11.766 11.504 11.6446 11.5687C11.5231 11.6334 11.3876 11.667 11.25 11.6666C11.2325 11.6666 11.215 11.6666 11.1983 11.6666C11.0525 11.6576 10.9117 11.6105 10.7898 11.5299C10.668 11.4493 10.5695 11.3381 10.5042 11.2074L8.64667 7.48992L7.77667 8.79575C7.70054 8.90985 7.59743 9.00339 7.47649 9.06808C7.35554 9.13277 7.22049 9.1666 7.08333 9.16658H4.16667C3.94565 9.16658 3.73369 9.07879 3.57741 8.92251C3.42113 8.76623 3.33333 8.55427 3.33333 8.33325C3.33333 8.11224 3.42113 7.90028 3.57741 7.744C3.73369 7.58772 3.94565 7.49992 4.16667 7.49992H6.6375L8.05417 5.37075C8.13436 5.24789 8.24596 5.14871 8.3774 5.08351C8.50883 5.0183 8.65532 4.98944 8.80167 4.99992C8.94747 5.0089 9.08834 5.05605 9.21018 5.13664C9.33201 5.21722 9.43052 5.32842 9.49583 5.45908L11.3533 9.17492L12.2233 7.86908C12.2996 7.7553 12.4028 7.66208 12.5238 7.59769C12.6447 7.5333 12.7797 7.49971 12.9167 7.49992H15.8333C16.0543 7.49992 16.2663 7.58772 16.4226 7.744C16.5789 7.90028 16.6667 8.11224 16.6667 8.33325Z" fill="#5E5E5E"/>
</svg>
