<svg id="discord" className="w-full h-full" xmlns="http://www.w3.org/2000/svg" viewBox="0 0 15 11" fill="currentColor">
<path fill-rule="evenodd" clip-rule="evenodd" d="M14.2258 4.39923C13.6685 2.7079 13.0424 1.80677 12.9918 1.73396L12.9887 1.72939C12.9516 1.68943 12.033 0.718304 9.81895 0L9.5264 0.703663C10.5797 1.0454 11.327 1.4623 11.738 1.73167C10.511 1.408 9.05136 1.20977 7.75859 1.20977C6.46584 1.20977 5.00621 1.408 3.77926 1.73167C4.1902 1.46232 4.93748 1.0454 5.99079 0.703663L5.69822 0C3.4842 0.718304 2.56556 1.68943 2.5285 1.72939L2.5253 1.73403C2.4744 1.80733 1.84853 2.70843 1.29148 4.39923C0.735924 6.08532 0.524878 8.46389 0.517212 8.55931L0.521885 8.56592C0.616267 8.70027 1.77156 10.3448 4.8081 10.3448L5.59458 9.33873C4.71345 9.13208 3.87325 8.79881 3.10414 8.34654L3.57435 7.72251C4.81514 8.45206 6.26203 8.83779 7.75859 8.83779C9.25511 8.83779 10.7021 8.45206 11.9429 7.72251L12.413 8.34654C11.6439 8.79881 10.8037 9.13208 9.92256 9.33873L10.7091 10.3448C13.7458 10.3448 14.901 8.70013 14.9953 8.5659L15 8.55931C14.9923 8.46389 14.7812 6.08532 14.2258 4.39923ZM5.79668 6.36034H4.94808V5.11094H5.79668V6.36034ZM9.72046 6.36034H10.5691V5.11094H9.72046V6.36034Z" fill="currentColor"/>
</svg>
