<svg xmlns="http://www.w3.org/2000/svg" width="21" height="21" viewBox="0 0 21 21" fill="none">
<path fill-rule="evenodd" clip-rule="evenodd" d="M3.5 0H6.125C7.05326 0 7.9435 0.368749 8.59987 1.02513C9.25625 1.6815 9.625 2.57174 9.625 3.5V6.125C9.625 7.05326 9.25625 7.9435 8.59987 8.59987C7.9435 9.25625 7.05326 9.625 6.125 9.625H3.5C2.57174 9.625 1.6815 9.25625 1.02513 8.59987C0.368749 7.9435 0 7.05326 0 6.125V3.5C0 2.57174 0.368749 1.6815 1.02513 1.02513C1.6815 0.368749 2.57174 0 3.5 0ZM7.36244 7.36244C7.69063 7.03425 7.875 6.58913 7.875 6.125V3.5C7.875 3.03587 7.69063 2.59075 7.36244 2.26256C7.03425 1.93437 6.58913 1.75 6.125 1.75H3.5C3.03587 1.75 2.59075 1.93437 2.26256 2.26256C1.93437 2.59075 1.75 3.03587 1.75 3.5V6.125C1.75 6.58913 1.93437 7.03425 2.26256 7.36244C2.59075 7.69063 3.03587 7.875 3.5 7.875H6.125C6.58913 7.875 7.03425 7.69063 7.36244 7.36244ZM14.875 0H17.5C18.4283 0 19.3185 0.368749 19.9749 1.02513C20.6313 1.6815 21 2.57174 21 3.5V6.125C21 7.05326 20.6313 7.9435 19.9749 8.59987C19.3185 9.25625 18.4283 9.625 17.5 9.625H14.875C13.9467 9.625 13.0565 9.25625 12.4001 8.59987C11.7437 7.9435 11.375 7.05326 11.375 6.125V3.5C11.375 2.57174 11.7437 1.6815 12.4001 1.02513C13.0565 0.368749 13.9467 0 14.875 0ZM18.7374 7.36244C19.0656 7.03425 19.25 6.58913 19.25 6.125V3.5C19.25 3.03587 19.0656 2.59075 18.7374 2.26256C18.4092 1.93437 17.9641 1.75 17.5 1.75H14.875C14.4109 1.75 13.9658 1.93437 13.6376 2.26256C13.3094 2.59075 13.125 3.03587 13.125 3.5V6.125C13.125 6.58913 13.3094 7.03425 13.6376 7.36244C13.9658 7.69063 14.4109 7.875 14.875 7.875H17.5C17.9641 7.875 18.4092 7.69063 18.7374 7.36244ZM6.125 11.375H3.5C2.57174 11.375 1.6815 11.7437 1.02513 12.4001C0.368749 13.0565 0 13.9467 0 14.875V17.5C0 18.4283 0.368749 19.3185 1.02513 19.9749C1.6815 20.6313 2.57174 21 3.5 21H6.125C7.05326 21 7.9435 20.6313 8.59987 19.9749C9.25625 19.3185 9.625 18.4283 9.625 17.5V14.875C9.625 13.9467 9.25625 13.0565 8.59987 12.4001C7.9435 11.7437 7.05326 11.375 6.125 11.375ZM7.875 17.5C7.875 17.9641 7.69063 18.4092 7.36244 18.7374C7.03425 19.0656 6.58913 19.25 6.125 19.25H3.5C3.03587 19.25 2.59075 19.0656 2.26256 18.7374C1.93437 18.4092 1.75 17.9641 1.75 17.5V14.875C1.75 14.4109 1.93437 13.9658 2.26256 13.6376C2.59075 13.3094 3.03587 13.125 3.5 13.125H6.125C6.58913 13.125 7.03425 13.3094 7.36244 13.6376C7.69063 13.9658 7.875 14.4109 7.875 14.875V17.5ZM14.875 11.375H17.5C18.4283 11.375 19.3185 11.7437 19.9749 12.4001C20.6313 13.0565 21 13.9467 21 14.875V17.5C21 18.4283 20.6313 19.3185 19.9749 19.9749C19.3185 20.6313 18.4283 21 17.5 21H14.875C13.9467 21 13.0565 20.6313 12.4001 19.9749C11.7437 19.3185 11.375 18.4283 11.375 17.5V14.875C11.375 13.9467 11.7437 13.0565 12.4001 12.4001C13.0565 11.7437 13.9467 11.375 14.875 11.375ZM18.7374 18.7374C19.0656 18.4092 19.25 17.9641 19.25 17.5V14.875C19.25 14.4109 19.0656 13.9658 18.7374 13.6376C18.4092 13.3094 17.9641 13.125 17.5 13.125H14.875C14.4109 13.125 13.9658 13.3094 13.6376 13.6376C13.3094 13.9658 13.125 14.4109 13.125 14.875V17.5C13.125 17.9641 13.3094 18.4092 13.6376 18.7374C13.9658 19.0656 14.4109 19.25 14.875 19.25H17.5C17.9641 19.25 18.4092 19.0656 18.7374 18.7374Z" fill="#5E5E5E"/>
</svg>