<svg id="icon-linked" height="17px" viewBox="0 0 18 19" fill="none" xmlns="http://www.w3.org/2000/svg">
<path fillRule="evenodd" clipRule="evenodd" d="M16.4595 1.54548C15.9714 1.05403 15.3907 0.664324 14.7509 0.398953C14.1111 0.133582 13.425 -0.00218084 12.7323 -0.000469798C12.04 -0.00230883 11.3542 0.133106 10.7146 0.397945C10.075 0.662783 9.4942 1.05179 9.00584 1.54248L6.55527 3.99004C6.41453 4.13069 6.33542 4.32149 6.33534 4.52047C6.33527 4.71945 6.41425 4.9103 6.5549 5.05105C6.69555 5.1918 6.88635 5.27091 7.08533 5.27098C7.28431 5.27105 7.47516 5.19207 7.61591 5.05143L10.065 2.60461C10.4142 2.2533 10.8296 1.97476 11.2872 1.7851C11.7448 1.59545 12.2355 1.49845 12.7308 1.49972C13.4766 1.49997 14.2056 1.72132 14.8256 2.1358C15.4456 2.55028 15.9288 3.13928 16.2141 3.82833C16.4995 4.51739 16.5741 5.27557 16.4286 6.00703C16.2831 6.73849 15.924 7.41039 15.3967 7.93779L12.9498 10.3846C12.8091 10.5254 12.73 10.7163 12.73 10.9153C12.73 11.1143 12.8091 11.3052 12.9498 11.446C13.0906 11.5867 13.2815 11.6658 13.4805 11.6658C13.6796 11.6658 13.8705 11.5867 14.0112 11.446L16.458 9.00068C17.4452 8.01138 17.9997 6.67096 18 5.27339C18.0003 3.87582 17.4463 2.53518 16.4595 1.54548ZM10.3845 12.9514L7.93773 15.3982C7.22733 16.0897 6.27328 16.4736 5.28198 16.4669C4.29068 16.4603 3.34185 16.0636 2.64079 15.3627C1.93972 14.6619 1.54278 13.7132 1.53586 12.7219C1.52894 11.7306 1.91259 10.7764 2.6038 10.0658L5.05061 7.61675C5.19126 7.476 5.27024 7.28514 5.27017 7.08616C5.2701 6.88719 5.19098 6.69639 5.05024 6.55574C4.90949 6.41509 4.71863 6.33611 4.51965 6.33618C4.32067 6.33625 4.12987 6.41536 3.98923 6.55611L1.54316 9.00517C0.554741 9.99409 -0.000351185 11.3352 1.66693e-07 12.7333C0.000352187 14.1315 0.556119 15.4723 1.54504 16.4607C2.53396 17.4492 3.87502 18.0043 5.27322 18.0039C6.67141 18.0036 8.01219 17.4478 9.00062 16.4589L11.4474 14.0121C11.5841 13.8706 11.6597 13.6811 11.658 13.4844C11.6563 13.2878 11.5774 13.0996 11.4383 12.9606C11.2992 12.8215 11.1111 12.7426 10.9144 12.7409C10.7177 12.7392 10.5283 12.8148 10.3868 12.9514H10.3845ZM6.22 10.7207L10.7206 6.22008C10.862 6.08345 11.0515 6.00784 11.2482 6.00955C11.4449 6.01126 11.633 6.09015 11.7721 6.22922C11.9111 6.3683 11.99 6.55643 11.9917 6.7531C11.9934 6.94977 11.9178 7.13925 11.7812 7.28072L7.28063 11.7813C7.21144 11.8529 7.12867 11.9101 7.03716 11.9494C6.94564 11.9887 6.84721 12.0094 6.74762 12.0103C6.64802 12.0111 6.54925 11.9921 6.45706 11.9544C6.36488 11.9167 6.28113 11.861 6.2107 11.7906C6.14027 11.7202 6.08457 11.6364 6.04686 11.5442C6.00914 11.452 5.99016 11.3533 5.99103 11.2537C5.9919 11.1541 6.01259 11.0557 6.0519 10.9641C6.09121 10.8726 6.14836 10.7899 6.22 10.7207Z" fill="#5E5E5E"/>
</svg>
