<svg width="19" height="18" viewBox="0 0 19 18" fill="none" xmlns="http://www.w3.org/2000/svg">
<path d="M15.0417 0H3.95833C2.9089 0.00129916 1.90282 0.432722 1.16076 1.19963C0.418698 1.96655 0.00125705 3.00633 0 4.09091L0 10.6364C0.00125705 11.7209 0.418698 12.7607 1.16076 13.5276C1.90282 14.2946 2.9089 14.726 3.95833 14.7273H8.70833V16.3636H5.54167C5.3317 16.3636 5.13034 16.4498 4.98187 16.6033C4.83341 16.7567 4.75 16.9648 4.75 17.1818C4.75 17.3988 4.83341 17.6069 4.98187 17.7604C5.13034 17.9138 5.3317 18 5.54167 18H13.4583C13.6683 18 13.8697 17.9138 14.0181 17.7604C14.1666 17.6069 14.25 17.3988 14.25 17.1818C14.25 16.9648 14.1666 16.7567 14.0181 16.6033C13.8697 16.4498 13.6683 16.3636 13.4583 16.3636H10.2917V14.7273H15.0417C16.0911 14.726 17.0972 14.2946 17.8392 13.5276C18.5813 12.7607 18.9987 11.7209 19 10.6364V4.09091C18.9987 3.00633 18.5813 1.96655 17.8392 1.19963C17.0972 0.432722 16.0911 0.00129916 15.0417 0ZM17.4167 10.6364C17.4167 11.2873 17.1664 11.9117 16.721 12.372C16.2756 12.8323 15.6716 13.0909 15.0417 13.0909H3.95833C3.32844 13.0909 2.72435 12.8323 2.27895 12.372C1.83356 11.9117 1.58333 11.2873 1.58333 10.6364V4.09091C1.58333 3.43992 1.83356 2.8156 2.27895 2.35528C2.72435 1.89497 3.32844 1.63636 3.95833 1.63636H15.0417C15.6716 1.63636 16.2756 1.89497 16.721 2.35528C17.1664 2.8156 17.4167 3.43992 17.4167 4.09091V10.6364ZM15.8333 7.36364C15.8333 7.58063 15.7499 7.78874 15.6015 7.94218C15.453 8.09562 15.2516 8.18182 15.0417 8.18182H12.6944L11.3485 10.2723C11.276 10.3846 11.1777 10.4767 11.0623 10.5402C10.947 10.6038 10.8182 10.6368 10.6875 10.6364C10.6709 10.6364 10.6543 10.6364 10.6384 10.6364C10.4999 10.6275 10.3661 10.5813 10.2503 10.5021C10.1346 10.423 10.041 10.3138 9.97896 10.1855L8.21433 6.53564L7.38783 7.81773C7.31552 7.92975 7.21756 8.02159 7.10266 8.0851C6.98776 8.14862 6.85947 8.18184 6.72917 8.18182H3.95833C3.74837 8.18182 3.54701 8.09562 3.39854 7.94218C3.25007 7.78874 3.16667 7.58063 3.16667 7.36364C3.16667 7.14664 3.25007 6.93853 3.39854 6.78509C3.54701 6.63166 3.74837 6.54545 3.95833 6.54545H6.30563L7.65146 4.455C7.72764 4.33437 7.83367 4.237 7.95853 4.17298C8.08339 4.10896 8.22255 4.08062 8.36158 4.09091C8.50009 4.09973 8.63393 4.14602 8.74967 4.22514C8.86541 4.30426 8.959 4.41344 9.02104 4.54173L10.7857 8.19L11.6122 6.90791C11.6847 6.79619 11.7827 6.70467 11.8976 6.64145C12.0125 6.57822 12.1407 6.54525 12.2708 6.54545H15.0417C15.2516 6.54545 15.453 6.63166 15.6015 6.78509C15.7499 6.93853 15.8333 7.14664 15.8333 7.36364Z" fill="#5E5E5E"/>
</svg>
