<svg id="icon-nft" width="18" height="16" viewBox="0 0 18 16" fill="currentColor" xmlns="http://www.w3.org/2000/svg">
<path d="M14.25 1.45455H9.354C9.23801 1.45529 9.12336 1.43042 9.01875 1.38182L6.65175 0.229818C6.33929 0.0789419 5.99505 0.000280976 5.646 0H3.75C2.7558 0.00115481 1.80267 0.384641 1.09966 1.06634C0.396661 1.74804 0.00119089 2.67229 0 3.63636L0 12.3636C0.00119089 13.3277 0.396661 14.252 1.09966 14.9337C1.80267 15.6154 2.7558 15.9988 3.75 16H14.25C15.2442 15.9988 16.1973 15.6154 16.9003 14.9337C17.6033 14.252 17.9988 13.3277 18 12.3636V5.09091C17.9988 4.12684 17.6033 3.20259 16.9003 2.52089C16.1973 1.83919 15.2442 1.4557 14.25 1.45455ZM3.75 1.45455H5.646C5.76199 1.4538 5.87664 1.47867 5.98125 1.52727L8.34825 2.67564C8.66039 2.82777 9.00465 2.90768 9.354 2.90909H14.25C14.6985 2.9098 15.1366 3.04049 15.508 3.28437C15.8794 3.52826 16.1671 3.87421 16.3342 4.27782L1.5 4.35927V3.63636C1.5 3.05771 1.73705 2.50276 2.15901 2.09359C2.58097 1.68442 3.15326 1.45455 3.75 1.45455ZM14.25 14.5455H3.75C3.15326 14.5455 2.58097 14.3156 2.15901 13.9064C1.73705 13.4972 1.5 12.9423 1.5 12.3636V5.81382L16.5 5.73164V12.3636C16.5 12.9423 16.2629 13.4972 15.841 13.9064C15.419 14.3156 14.8467 14.5455 14.25 14.5455Z" fill="currentColor"/>
</svg>
