<svg width="51" height="64" viewBox="0 0 51 64" fill="none" xmlns="http://www.w3.org/2000/svg">
<g filter="url(#filter0_d)">
<path d="M37.9937 6L45 13.8283L44.9683 13.8572V54.7263C44.9683 56.5315 43.5123 58 41.7224 58H9.24586C7.45599 58 6 56.5315 6 54.7263V9.2865C6 7.48127 7.45599 6.01279 9.24586 6.01279H37.962V6.02884L37.9937 6ZM35.7981 8.19526H9.24586C8.64889 8.19526 8.16391 8.6844 8.16391 9.2865V54.7263C8.16391 55.3284 8.64889 55.8175 9.24586 55.8175H41.7224C42.3194 55.8175 42.8044 55.3284 42.8044 54.7263V16.0236H35.7981V8.19526ZM36.4173 40.6542V42.8367H27.0516V45.6756C27.0516 48.2471 24.9775 50.339 22.4279 50.339C19.8784 50.339 17.8032 48.2471 17.8032 45.6756V42.8367H14.5574V40.6542H36.4173ZM24.8877 42.8367H19.9671V45.6756C19.9671 47.0439 21.0713 48.1565 22.4279 48.1565C23.7846 48.1565 24.8877 47.0439 24.8877 45.6756V42.8367ZM23.5099 43.9279V47.0653H21.346V43.9279H23.5099ZM26.5687 33.0273V36.3692H24.4048V33.0273H26.5687ZM18.7711 23.122L20.301 24.6651L18.4065 26.5758L20.301 28.4865L18.7711 30.0296L16.8766 28.1189L14.9821 30.0296L13.4522 28.4865L15.3466 26.5758L13.4522 24.6651L14.9821 23.122L16.8766 25.0327L18.7711 23.122ZM35.9925 23.122L37.5225 24.6651L35.6276 26.5758L37.5225 28.4865L35.9925 30.0296L34.0975 28.1187L32.2025 30.0296L30.6726 28.4865L32.5674 26.5758L30.6726 24.6651L32.2025 23.122L34.0975 25.0328L35.9925 23.122ZM37.962 9.22116V13.8411H42.0969L37.962 9.22116Z" fill="url(#paint0_linear)"/>
</g>
<defs>
<filter id="filter0_d" x="0" y="0" width="51" height="64" filterUnits="userSpaceOnUse" color-interpolation-filters="sRGB">
<feFlood flood-opacity="0" result="BackgroundImageFix"/>
<feColorMatrix in="SourceAlpha" type="matrix" values="0 0 0 0 0 0 0 0 0 0 0 0 0 0 0 0 0 0 127 0" result="hardAlpha"/>
<feOffset/>
<feGaussianBlur stdDeviation="3"/>
<feColorMatrix type="matrix" values="0 0 0 0 0.482353 0 0 0 0 0.380392 0 0 0 0 1 0 0 0 0.3 0"/>
<feBlend mode="normal" in2="BackgroundImageFix" result="effect1_dropShadow"/>
<feBlend mode="normal" in="SourceGraphic" in2="effect1_dropShadow" result="shape"/>
</filter>
<linearGradient id="paint0_linear" x1="25.5" y1="6" x2="25.5" y2="58" gradientUnits="userSpaceOnUse">
<stop stop-color="#7B61FF"/>
<stop offset="1" stop-color="#DF61FF"/>
</linearGradient>
</defs>
</svg>
