<svg xmlns="http://www.w3.org/2000/svg" width="16" height="16" viewBox="0 0 16 16" fill="none">
<path fill-rule="evenodd" clip-rule="evenodd" d="M4.17809 3.2116C5.3841 1.53786 7.18751 0.391928 9.21501 0.0110137C9.31132 -0.00671173 9.41035 -0.0030053 9.50507 0.0218695C9.59979 0.0467444 9.68786 0.092177 9.76304 0.154938C9.83821 0.2177 9.89864 0.296249 9.94002 0.385003C9.98141 0.473758 10.0027 0.570538 10.0025 0.668467V15.0918C10.0025 15.2686 9.93223 15.4382 9.80719 15.5632C9.68214 15.6883 9.51254 15.7585 9.3357 15.7585C9.29519 15.7588 9.25476 15.755 9.21501 15.7472C7.18764 15.366 5.38434 14.2201 4.17809 12.5466H3.33394C2.45016 12.5452 1.60298 12.1935 0.978046 11.5686C0.353117 10.9437 0.00141067 10.0965 0 9.21269V6.54554C0.00141067 5.66175 0.353117 4.81457 0.978046 4.18964C1.60298 3.56471 2.45016 3.21301 3.33394 3.2116H4.17809ZM5.08693 11.5164C5.933 12.8075 7.19757 13.7681 8.66824 14.2369V1.52129C7.19923 1.99134 5.93661 2.95237 5.09226 4.24312C5.03165 4.33587 4.94889 4.41206 4.85145 4.4648C4.754 4.51753 4.64496 4.54516 4.53416 4.54517H3.33394C2.80341 4.54517 2.29461 4.75592 1.91947 5.13106C1.54433 5.50621 1.33358 6.01501 1.33358 6.54554V9.21269C1.33358 9.74322 1.54433 10.252 1.91947 10.6272C2.29461 11.0023 2.80341 11.2131 3.33394 11.2131H4.52882C4.63974 11.2132 4.74887 11.241 4.84632 11.294C4.94378 11.347 5.02647 11.4234 5.08693 11.5164ZM13.8738 2.73814C13.8118 2.67619 13.7383 2.62705 13.6573 2.59352C13.5764 2.55999 13.4896 2.54273 13.402 2.54273C13.3144 2.54273 13.2277 2.55999 13.1467 2.59352C13.0658 2.62705 12.9922 2.67619 12.9303 2.73814C12.8683 2.80009 12.8192 2.87364 12.7856 2.95458C12.7521 3.03553 12.7349 3.12228 12.7349 3.20989C12.7349 3.2975 12.7521 3.38426 12.7856 3.4652C12.8192 3.54615 12.8683 3.61969 12.9303 3.68164C14.0418 4.79578 14.666 6.3053 14.666 7.87907C14.666 9.45285 14.0418 10.9624 12.9303 12.0765C12.8052 12.2016 12.7349 12.3713 12.7349 12.5483C12.7349 12.7252 12.8052 12.8949 12.9303 13.02C13.0554 13.1451 13.2251 13.2154 13.402 13.2154C13.579 13.2154 13.7487 13.1451 13.8738 13.02C15.2352 11.6555 15.9998 9.80663 15.9998 7.87907C15.9998 5.95152 15.2352 4.10267 13.8738 2.73814ZM12.0692 4.73925C12.0072 4.67708 11.9336 4.62772 11.8526 4.59399C11.7716 4.56026 11.6847 4.54282 11.5969 4.54267C11.5091 4.54251 11.4222 4.55965 11.3411 4.59309C11.2599 4.62653 11.1862 4.67563 11.124 4.73759C11.0618 4.79954 11.0124 4.87313 10.9787 4.95415C10.945 5.03518 10.9275 5.12206 10.9274 5.20983C10.9272 5.29759 10.9444 5.38453 10.9778 5.46568C11.0113 5.54682 11.0604 5.62059 11.1223 5.68276C11.7043 6.26559 12.0311 7.05554 12.0311 7.87916C12.0311 8.70277 11.7043 9.49273 11.1223 10.0756C11.0604 10.1377 11.0113 10.2115 10.9778 10.2926C10.9444 10.3738 10.9272 10.4607 10.9274 10.5485C10.9275 10.6363 10.945 10.7231 10.9787 10.8042C11.0124 10.8852 11.0618 10.9588 11.124 11.0207C11.2495 11.1458 11.4197 11.216 11.5969 11.2156C11.6847 11.2155 11.7716 11.1981 11.8526 11.1643C11.9336 11.1306 12.0072 11.0812 12.0692 11.0191C12.9009 10.1857 13.368 9.0565 13.368 7.87916C13.368 6.70181 12.9009 5.57257 12.0692 4.73925Z" fill="#7E7E7E"/>
</svg>