<svg width="20" height="20" viewBox="0 0 20 20" fill="none" xmlns="http://www.w3.org/2000/svg">
<path fillRule="evenodd" clipRule="evenodd" d="M19.1667 18.3333H2.5C2.27899 18.3333 2.06702 18.2455 1.91074 18.0893C1.75446 17.933 1.66667 17.721 1.66667 17.5V0.833333C1.66667 0.61232 1.57887 0.400358 1.42259 0.244078C1.26631 0.0877974 1.05435 0 0.833333 0C0.61232 0 0.400358 0.0877974 0.244078 0.244078C0.0877974 0.400358 0 0.61232 0 0.833333V17.5C0 18.163 0.263392 18.7989 0.732233 19.2678C1.20107 19.7366 1.83696 20 2.5 20H19.1667C19.3877 20 19.5996 19.9122 19.7559 19.7559C19.9122 19.5996 20 19.3877 20 19.1667C20 18.9457 19.9122 18.7337 19.7559 18.5774C19.5996 18.4211 19.3877 18.3333 19.1667 18.3333ZM12.5 16.6667C12.721 16.6667 12.933 16.5789 13.0893 16.4226C13.2455 16.2663 13.3333 16.0543 13.3333 15.8333V10C13.3333 9.77899 13.2455 9.56703 13.0893 9.41074C12.933 9.25446 12.721 9.16667 12.5 9.16667C12.279 9.16667 12.067 9.25446 11.9107 9.41074C11.7545 9.56703 11.6667 9.77899 11.6667 10V15.8333C11.6667 16.0543 11.7545 16.2663 11.9107 16.4226C12.067 16.5789 12.279 16.6667 12.5 16.6667ZM6.42259 16.4226C6.26631 16.5789 6.05435 16.6667 5.83333 16.6667C5.61232 16.6667 5.40036 16.5789 5.24408 16.4226C5.0878 16.2663 5 16.0543 5 15.8333V10C5 9.77899 5.0878 9.56703 5.24408 9.41074C5.40036 9.25446 5.61232 9.16667 5.83333 9.16667C6.05435 9.16667 6.26631 9.25446 6.42259 9.41074C6.57887 9.56703 6.66667 9.77899 6.66667 10V15.8333C6.66667 16.0543 6.57887 16.2663 6.42259 16.4226ZM15.8333 16.6667C16.0543 16.6667 16.2663 16.5789 16.4226 16.4226C16.5789 16.2663 16.6667 16.0543 16.6667 15.8333V5.83333C16.6667 5.61232 16.5789 5.40036 16.4226 5.24408C16.2663 5.0878 16.0543 5 15.8333 5C15.6123 5 15.4004 5.0878 15.2441 5.24408C15.0878 5.40036 15 5.61232 15 5.83333V15.8333C15 16.0543 15.0878 16.2663 15.2441 16.4226C15.4004 16.5789 15.6123 16.6667 15.8333 16.6667ZM9.75592 16.4226C9.59964 16.5789 9.38768 16.6667 9.16667 16.6667C8.94565 16.6667 8.73369 16.5789 8.57741 16.4226C8.42113 16.2663 8.33333 16.0543 8.33333 15.8333V5.83333C8.33333 5.61232 8.42113 5.40036 8.57741 5.24408C8.73369 5.0878 8.94565 5 9.16667 5C9.38768 5 9.59964 5.0878 9.75592 5.24408C9.9122 5.40036 10 5.61232 10 5.83333V15.8333C10 16.0543 9.9122 16.2663 9.75592 16.4226Z" fill="#5E5E5E"/>
</svg>
