<svg width="54" height="54" viewBox="0 0 54 54" fill="none" xmlns="http://www.w3.org/2000/svg">
<rect opacity="0.25" width="54" height="54" rx="9" fill="url(#paint0_linear)"/>
<path d="M39.7894 19.5762C38.8382 20.0041 37.8247 20.2878 36.768 20.4255C37.8551 19.7598 38.6847 18.7137 39.0749 17.4528C38.0612 18.0726 36.9421 18.5104 35.7496 18.7547C34.7872 17.7037 33.4155 17.0527 31.9192 17.0527C29.0159 17.0527 26.6786 19.4696 26.6786 22.4325C26.6786 22.8588 26.7138 23.2687 26.8001 23.659C22.4405 23.4409 18.5829 21.2979 15.9914 18.0333C15.539 18.8383 15.2736 19.7598 15.2736 20.7518C15.2736 22.6145 16.2088 24.2657 17.6029 25.2216C16.7603 25.2052 15.9338 24.9543 15.2336 24.5592C15.2336 24.5756 15.2336 24.5969 15.2336 24.6182C15.2336 27.2318 17.0513 29.4028 19.435 29.9029C19.0081 30.0226 18.5429 30.08 18.0601 30.08C17.7244 30.08 17.3854 30.0603 17.0673 29.9881C17.7467 32.118 19.6748 33.684 21.9673 33.7348C20.1831 35.1662 17.9178 36.0288 15.4654 36.0288C15.0354 36.0288 14.6229 36.009 14.2104 35.9549C16.5333 37.4913 19.2863 38.3685 22.255 38.3685C31.9048 38.3685 37.1804 30.1701 37.1804 23.0638C37.1804 22.826 37.1724 22.5965 37.1612 22.3686C38.202 21.611 39.0764 20.6649 39.7894 19.5762Z" fill="url(#paint1_linear)"/>
<defs>
<linearGradient id="paint0_linear" x1="0" y1="0" x2="62.4361" y2="12.7775" gradientUnits="userSpaceOnUse">
<stop stop-color="#A129FF"/>
<stop offset="1" stop-color="#7B61FF"/>
</linearGradient>
<linearGradient id="paint1_linear" x1="14.2104" y1="17.0527" x2="43.2715" y2="24.1895" gradientUnits="userSpaceOnUse">
<stop stop-color="#A129FF"/>
<stop offset="1" stop-color="#7B61FF"/>
</linearGradient>
</defs>
</svg>
