<svg width="18" height="18" viewBox="0 0 18 18" fill="none" xmlns="http://www.w3.org/2000/svg">
<path fillRule="evenodd" clipRule="evenodd" d="M8.99915 2.35091C12.4825 -0.270599 15.1415 -0.704892 16.9222 1.07579C18.7036 2.85721 18.2686 5.51548 15.6471 8.99883C18.2723 12.4822 18.7036 15.1404 16.9222 16.9219C16.5882 17.2682 16.1868 17.5425 15.7428 17.7279C15.2988 17.9132 14.8215 18.0058 14.3404 17.9997C12.8613 17.9997 11.0761 17.2106 8.99915 15.6475C6.92144 17.2106 5.13626 17.9997 3.65787 17.9997C3.17675 18.0058 2.6995 17.9132 2.25549 17.7279C1.81148 17.5425 1.41011 17.2682 1.07611 16.9219C-0.705319 15.1404 -0.270276 12.4814 2.35124 8.99883C-0.270276 5.51548 -0.706069 2.85721 1.07611 1.07579C2.85829 -0.705642 5.51655 -0.270599 8.99915 2.35091ZM15.1521 1.66613C14.8855 1.56049 14.6001 1.51045 14.3134 1.51908C13.1036 1.51908 11.6319 2.29391 10.2083 3.32376C10.9493 3.95307 11.7219 4.66114 12.529 5.46897C13.3361 6.2768 14.0442 7.04713 14.6727 7.7882C16.2059 5.66849 17.1735 3.44377 15.8638 2.13339C15.6609 1.93077 15.4187 1.77176 15.1521 1.66613ZM11.4706 11.4741C12.1712 10.7698 12.9745 9.91392 13.7329 8.99883C12.9745 8.08373 12.1787 7.2279 11.4744 6.52733C10.7701 5.82676 9.91424 5.02193 8.99915 4.26435C8.08406 5.02343 7.22822 5.82751 6.52765 6.52733C5.82708 7.22715 5.02375 8.08373 4.26543 8.99883C5.02375 9.91392 5.82708 10.7773 6.52765 11.4741C7.22822 12.1709 8.08406 12.9742 8.99915 13.7325C9.91424 12.9742 10.7701 12.1784 11.4706 11.4741ZM2.84599 1.6661C2.57934 1.77188 2.33719 1.93117 2.13446 2.13414C0.823333 3.44377 1.79243 5.66849 3.32483 7.7882C3.95415 7.04413 4.66072 6.2768 5.4693 5.46897C6.27788 4.66114 7.04895 3.95307 7.79003 3.32376C6.36639 2.29391 4.89474 1.51908 3.68487 1.51908C3.39814 1.51028 3.11264 1.56032 2.84599 1.6661ZM3.32483 10.2064C1.79243 12.3254 0.824833 14.5509 2.13446 15.8605V15.8635C3.44259 17.1746 5.66732 16.2063 7.78628 14.6716C7.04445 14.0431 6.27638 13.3335 5.4693 12.5257C4.66222 11.7178 3.95415 10.9475 3.32483 10.2064ZM10.209 14.6716C12.328 16.2033 14.552 17.1686 15.8608 15.8605L15.8638 15.8635C17.175 14.5539 16.2059 12.3292 14.6697 10.2064C14.0412 10.9505 13.3323 11.7201 12.526 12.5257C11.7197 13.3313 10.9486 14.0431 10.209 14.6716ZM10.4993 8.99888C10.4993 9.82739 9.82767 10.499 8.99916 10.499C8.17065 10.499 7.49901 9.82739 7.49901 8.99888C7.49901 8.17037 8.17065 7.49873 8.99916 7.49873C9.82767 7.49873 10.4993 8.17037 10.4993 8.99888Z" fill="#7B61FF"/>
</svg>
