<svg width="19" height="20" viewBox="0 0 19 20" fill="none" xmlns="http://www.w3.org/2000/svg">
<path fill-rule="evenodd" clip-rule="evenodd" d="M3.16667 0.5H5.54167C6.38152 0.5 7.18697 0.83363 7.78084 1.4275C8.3747 2.02136 8.70833 2.82681 8.70833 3.66667V6.04167C8.70833 6.88152 8.3747 7.68697 7.78084 8.28084C7.18697 8.8747 6.38152 9.20833 5.54167 9.20833H3.16667C2.32681 9.20833 1.52136 8.8747 0.927495 8.28084C0.33363 7.68697 0 6.88152 0 6.04167V3.66667C0 2.82681 0.33363 2.02136 0.927495 1.4275C1.52136 0.83363 2.32681 0.5 3.16667 0.5ZM6.66125 7.16125C6.95818 6.86432 7.125 6.46159 7.125 6.04167V3.66667C7.125 3.24674 6.95818 2.84401 6.66125 2.54708C6.36432 2.25015 5.96159 2.08333 5.54167 2.08333H3.16667C2.74674 2.08333 2.34401 2.25015 2.04708 2.54708C1.75015 2.84401 1.58333 3.24674 1.58333 3.66667V6.04167C1.58333 6.46159 1.75015 6.86432 2.04708 7.16125C2.34401 7.45818 2.74674 7.625 3.16667 7.625H5.54167C5.96159 7.625 6.36432 7.45818 6.66125 7.16125ZM13.4573 0.5H15.8323C16.6722 0.5 17.4776 0.83363 18.0715 1.4275C18.6653 2.02136 18.999 2.82681 18.999 3.66667V6.04167C18.999 6.88152 18.6653 7.68697 18.0715 8.28084C17.4776 8.8747 16.6722 9.20833 15.8323 9.20833H13.4573C12.6174 9.20833 11.812 8.8747 11.2181 8.28084C10.6243 7.68697 10.2906 6.88152 10.2906 6.04167V3.66667C10.2906 2.82681 10.6243 2.02136 11.2181 1.4275C11.812 0.83363 12.6174 0.5 13.4573 0.5ZM16.9519 7.16125C17.2488 6.86432 17.4156 6.46159 17.4156 6.04167V3.66667C17.4156 3.24674 17.2488 2.84401 16.9519 2.54708C16.655 2.25015 16.2522 2.08333 15.8323 2.08333H13.4573C13.0374 2.08333 12.6346 2.25015 12.3377 2.54708C12.0408 2.84401 11.874 3.24674 11.874 3.66667V6.04167C11.874 6.46159 12.0408 6.86432 12.3377 7.16125C12.6346 7.45818 13.0374 7.625 13.4573 7.625H15.8323C16.2522 7.625 16.655 7.45818 16.9519 7.16125ZM5.54167 10.7917H3.16667C2.32681 10.7917 1.52136 11.1253 0.927495 11.7192C0.33363 12.313 0 13.1185 0 13.9583V16.3333C0 17.1732 0.33363 17.9786 0.927495 18.5725C1.52136 19.1664 2.32681 19.5 3.16667 19.5H5.54167C6.38152 19.5 7.18697 19.1664 7.78084 18.5725C8.3747 17.9786 8.70833 17.1732 8.70833 16.3333V13.9583C8.70833 13.1185 8.3747 12.313 7.78084 11.7192C7.18697 11.1253 6.38152 10.7917 5.54167 10.7917ZM7.125 16.3333C7.125 16.7533 6.95818 17.156 6.66125 17.4529C6.36432 17.7498 5.96159 17.9167 5.54167 17.9167H3.16667C2.74674 17.9167 2.34401 17.7498 2.04708 17.4529C1.75015 17.156 1.58333 16.7533 1.58333 16.3333V13.9583C1.58333 13.5384 1.75015 13.1357 2.04708 12.8387C2.34401 12.5418 2.74674 12.375 3.16667 12.375H5.54167C5.96159 12.375 6.36432 12.5418 6.66125 12.8387C6.95818 13.1357 7.125 13.5384 7.125 13.9583V16.3333ZM13.4573 10.7917H15.8323C16.6722 10.7917 17.4776 11.1253 18.0715 11.7192C18.6653 12.313 18.999 13.1185 18.999 13.9583V16.3333C18.999 17.1732 18.6653 17.9786 18.0715 18.5725C17.4776 19.1664 16.6722 19.5 15.8323 19.5H13.4573C12.6174 19.5 11.812 19.1664 11.2181 18.5725C10.6243 17.9786 10.2906 17.1732 10.2906 16.3333V13.9583C10.2906 13.1185 10.6243 12.313 11.2181 11.7192C11.812 11.1253 12.6174 10.7917 13.4573 10.7917ZM16.9519 17.4529C17.2488 17.156 17.4156 16.7533 17.4156 16.3333V13.9583C17.4156 13.5384 17.2488 13.1357 16.9519 12.8387C16.655 12.5418 16.2522 12.375 15.8323 12.375H13.4573C13.0374 12.375 12.6346 12.5418 12.3377 12.8387C12.0408 13.1357 11.874 13.5384 11.874 13.9583V16.3333C11.874 16.7533 12.0408 17.156 12.3377 17.4529C12.6346 17.7498 13.0374 17.9167 13.4573 17.9167H15.8323C16.2522 17.9167 16.655 17.7498 16.9519 17.4529Z" fill="#7B61FF"/>
</svg>
