<svg xmlns="http://www.w3.org/2000/svg" width="18" height="20" viewBox="0 0 18 20" fill="none">
<path d="M17.8483 11.3818L16.276 5.6858C15.8152 4.0171 14.8137 2.55139 13.4306 1.52166C12.0475 0.491935 10.3623 -0.0427253 8.64282 0.00266955C6.92334 0.0480644 5.26827 0.67091 3.94068 1.7722C2.6131 2.87349 1.6892 4.39003 1.31583 6.08075L0.098589 11.5926C-0.0358656 12.2017 -0.032757 12.8333 0.107685 13.441C0.248128 14.0487 0.522318 14.6168 0.910012 15.1035C1.29771 15.5902 1.78901 15.983 2.34764 16.2529C2.90627 16.5228 3.51797 16.6629 4.13757 16.6629H5.0594C5.24932 17.6047 5.75675 18.4514 6.49571 19.0596C7.23467 19.6678 8.15972 20 9.11411 20C10.0685 20 10.9935 19.6678 11.7325 19.0596C12.4715 18.4514 12.9789 17.6047 13.1688 16.6629H13.8623C14.5001 16.6629 15.1293 16.5145 15.7007 16.2291C16.2722 15.9438 16.7703 15.5293 17.1564 15.0179C17.5424 14.5066 17.8057 13.9124 17.9259 13.2816C18.0461 12.6509 18.0198 12.0007 17.8491 11.3818H17.8483ZM9.11411 18.3293C8.6025 18.3272 8.10405 18.166 7.68693 17.8677C7.26982 17.5694 6.95442 17.1486 6.78389 16.6629H11.4443C11.2738 17.1486 10.9584 17.5694 10.5413 17.8677C10.1242 18.166 9.62571 18.3272 9.11411 18.3293ZM15.8383 14.009C15.6077 14.317 15.309 14.5667 14.9658 14.7381C14.6226 14.9095 14.2445 14.9979 13.8614 14.9964H4.13757C3.76585 14.9963 3.39889 14.9122 3.06377 14.7502C2.72866 14.5883 2.43394 14.3526 2.20138 14.0606C1.96882 13.7686 1.80435 13.4277 1.72011 13.0632C1.63587 12.6986 1.63402 12.3196 1.71468 11.9542L2.93109 6.44154C3.22432 5.11353 3.94999 3.92233 4.99275 3.0573C6.03551 2.19228 7.33552 1.70306 8.68611 1.66743C10.0367 1.63181 11.3604 2.05181 12.4467 2.86068C13.533 3.66954 14.3196 4.82085 14.6815 6.13158L16.2537 11.8276C16.3576 12.1987 16.3741 12.5891 16.302 12.9677C16.2299 13.3464 16.0711 13.7029 15.8383 14.009Z" fill="#5E5E5E"/>
</svg>