<svg width="18" height="12" viewBox="0 0 18 12" fill="none" xmlns="http://www.w3.org/2000/svg">
<path d="M17.5351 6.01881L17.1565 10.9634C17.1484 11.1259 17.0817 11.2789 16.9701 11.3908C16.8586 11.5027 16.7107 11.565 16.5571 11.5647L11.9194 11.999C11.7487 12.0085 11.5812 11.9477 11.4519 11.8294C11.3225 11.7111 11.2414 11.5445 11.2253 11.3643C11.2166 11.2782 11.2246 11.1912 11.2489 11.1085C11.2731 11.0259 11.313 10.9494 11.3662 10.8837C11.4194 10.8179 11.4847 10.7644 11.5582 10.7264C11.6316 10.6884 11.7116 10.6667 11.7932 10.6627L15.1058 10.362L9.64789 4.58222L6.96625 7.38859C6.9101 7.4534 6.84184 7.50514 6.76581 7.54054C6.68978 7.57594 6.60763 7.59421 6.52457 7.59421C6.44151 7.59421 6.35936 7.57594 6.28333 7.54054C6.2073 7.50514 6.13904 7.4534 6.08289 7.38859L0.183283 1.17449C0.0656399 1.04398 0 0.870485 0 0.690058C0 0.50963 0.0656399 0.33614 0.183283 0.205626C0.239435 0.140818 0.307692 0.0890741 0.383725 0.0536766C0.459758 0.0182791 0.541908 0 0.624965 0C0.708021 0 0.790172 0.0182791 0.866205 0.0536766C0.942238 0.0890741 1.01049 0.140818 1.06665 0.205626L6.52457 5.9854L9.20621 3.14563C9.32767 3.03058 9.48492 2.96697 9.64789 2.96697C9.81085 2.96697 9.9681 3.03058 10.0896 3.14563L15.9892 9.42655L16.2731 5.91859C16.2888 5.7532 16.3622 5.59994 16.4788 5.48874C16.5955 5.37754 16.7471 5.31639 16.9041 5.31722H16.9672C17.0488 5.32129 17.1288 5.34298 17.2022 5.38098C17.2757 5.41898 17.341 5.47248 17.3942 5.53819C17.4473 5.6039 17.4873 5.68043 17.5115 5.76308C17.5357 5.84573 17.5438 5.93276 17.5351 6.01881Z" fill="#5E5E5E"/>
</svg>
