<svg width="19" height="13" viewBox="0 0 19 13" fill="none" xmlns="http://www.w3.org/2000/svg">
<path d="M18.9963 6.47962L18.5862 1.12302C18.5774 0.946984 18.5052 0.781233 18.3843 0.659996C18.2635 0.53876 18.1033 0.471299 17.9368 0.471543L12.9127 0.00103058C12.7278 -0.00917154 12.5463 0.0566814 12.4062 0.18483C12.2661 0.312978 12.1782 0.493509 12.1608 0.688702C12.1514 0.781926 12.16 0.876204 12.1863 0.965744C12.2125 1.05528 12.2558 1.13819 12.3134 1.20938C12.371 1.28056 12.4418 1.33852 12.5213 1.37968C12.6009 1.42085 12.6875 1.44436 12.776 1.44876L16.3646 1.7745L10.4519 8.03593L7.54677 4.9957C7.48594 4.92549 7.412 4.86943 7.32963 4.83108C7.24726 4.79274 7.15826 4.77294 7.06828 4.77294C6.97831 4.77294 6.88931 4.79274 6.80694 4.83108C6.72457 4.86943 6.65063 4.92549 6.5898 4.9957L0.198557 11.7276C0.0711099 11.869 0 12.057 0 12.2524C0 12.4479 0.0711099 12.6358 0.198557 12.7772C0.259388 12.8474 0.333333 12.9035 0.415702 12.9419C0.498072 12.9802 0.587067 13 0.677045 13C0.767023 13 0.856019 12.9802 0.938389 12.9419C1.02076 12.9035 1.0947 12.8474 1.15553 12.7772L7.06828 6.51581L9.97339 9.59224C10.105 9.71687 10.2753 9.78578 10.4519 9.78578C10.6284 9.78578 10.7988 9.71687 10.9304 9.59224L17.3216 2.78791L17.6292 6.5882C17.6462 6.76737 17.7257 6.9334 17.8521 7.05386C17.9785 7.17433 18.1427 7.24058 18.3128 7.23968H18.3811C18.4696 7.23527 18.5562 7.21177 18.6358 7.1706C18.7153 7.12944 18.7861 7.07148 18.8437 7.00029C18.9013 6.92911 18.9445 6.8462 18.9708 6.75666C18.997 6.66712 19.0057 6.57284 18.9963 6.47962Z" fill="#5E5E5E"/>
</svg>
