<svg xmlns="http://www.w3.org/2000/svg" width="9" height="11" viewBox="0 0 9 11" fill="none">
<path d="M7.53312 4.00796H5.66101C5.52136 4.00796 3.34221 3.89745 4.11056 2.01928C4.18039 1.70357 4.44571 1.30897 4.41785 0.81967C4.36189 -0.048426 3.71933 -0.269437 3.83113 0.361982C3.99876 0.803863 3.71933 1.24574 2.97896 1.24574C1.37242 1.24574 2.62969 1.24574 1.1768 1.22994C0.00334654 0.993261 0.687883 0.393455 0.506256 0.0619392C0.506256 0.0619392 0.170983 -0.301049 0.0173367 0.788057C-0.1503 1.97186 0.953327 2.01914 0.939337 3.61321C0.925347 6.15442 0.925347 8.5693 0.925347 11H1.66572V8.20618H3.46775V11H4.25009V8.20618H5.78668C6.86245 8.17456 6.13607 9.56357 5.64715 11H6.45735L7.47703 8.20618H8.16157C8.13371 9.5321 8.14783 10.1319 8.14783 11H8.98601C8.97214 7.41725 9 6.61224 9 5.33374C8.99988 4.54468 8.79039 4.00796 7.53312 4.00796Z" fill="#20E77B"/>
</svg>