<svg width="46" height="46" viewBox="0 0 46 46" fill="none" xmlns="http://www.w3.org/2000/svg">
<rect opacity="0.25" width="46" height="46" rx="9" fill="url(#paint0_linear)"/>
<path fill-rule="evenodd" clip-rule="evenodd" d="M29.25 12.9167H30.2083C31.4787 12.9182 32.6966 13.4235 33.5949 14.3218C34.4932 15.2201 34.9985 16.438 35 17.7083V29.2083C34.9985 30.4787 34.4932 31.6966 33.5949 32.5949C32.6966 33.4932 31.4787 33.9985 30.2083 34H16.7917C15.5213 33.9985 14.3034 33.4932 13.4051 32.5949C12.5068 31.6966 12.0015 30.4787 12 29.2083V17.7083C12.0015 16.438 12.5068 15.2201 13.4051 14.3218C14.3034 13.4235 15.5213 12.9182 16.7917 12.9167H17.75V11.9583C17.75 11.7042 17.851 11.4604 18.0307 11.2807C18.2104 11.101 18.4542 11 18.7083 11C18.9625 11 19.2063 11.101 19.386 11.2807C19.5657 11.4604 19.6667 11.7042 19.6667 11.9583V12.9167H27.3333V11.9583C27.3333 11.7042 27.4343 11.4604 27.614 11.2807C27.7937 11.101 28.0375 11 28.2917 11C28.5458 11 28.7896 11.101 28.9693 11.2807C29.149 11.4604 29.25 11.7042 29.25 11.9583V12.9167ZM14.7587 15.6754C14.2196 16.2146 13.9167 16.9458 13.9167 17.7083V18.6667H33.0833V17.7083C33.0833 16.9458 32.7804 16.2146 32.2413 15.6754C31.7021 15.1362 30.9708 14.8333 30.2083 14.8333H16.7917C16.0292 14.8333 15.2979 15.1362 14.7587 15.6754ZM16.7917 32.0833H30.2083C30.9708 32.0833 31.7021 31.7804 32.2413 31.2413C32.7804 30.7021 33.0833 29.9708 33.0833 29.2083V20.5833H13.9167V29.2083C13.9167 29.9708 14.2196 30.7021 14.7587 31.2413C15.2979 31.7804 16.0292 32.0833 16.7917 32.0833ZM24.9375 25.375C24.9375 26.1689 24.2939 26.8125 23.5 26.8125C22.7061 26.8125 22.0625 26.1689 22.0625 25.375C22.0625 24.5811 22.7061 23.9375 23.5 23.9375C24.2939 23.9375 24.9375 24.5811 24.9375 25.375ZM18.7081 26.8125C19.502 26.8125 20.1456 26.1689 20.1456 25.375C20.1456 24.5811 19.502 23.9375 18.7081 23.9375C17.9142 23.9375 17.2706 24.5811 17.2706 25.375C17.2706 26.1689 17.9142 26.8125 18.7081 26.8125ZM29.7294 25.375C29.7294 26.1689 29.0858 26.8125 28.2919 26.8125C27.498 26.8125 26.8544 26.1689 26.8544 25.375C26.8544 24.5811 27.498 23.9375 28.2919 23.9375C29.0858 23.9375 29.7294 24.5811 29.7294 25.375Z" fill="url(#paint1_linear)"/>
<defs>
<linearGradient id="paint0_linear" x1="0" y1="0" x2="53.1863" y2="10.8845" gradientUnits="userSpaceOnUse">
<stop stop-color="#A129FF"/>
<stop offset="1" stop-color="#7B61FF"/>
</linearGradient>
<linearGradient id="paint1_linear" x1="12" y1="11" x2="38.5932" y2="16.4423" gradientUnits="userSpaceOnUse">
<stop stop-color="#A129FF"/>
<stop offset="1" stop-color="#7B61FF"/>
</linearGradient>
</defs>
</svg>
