<svg xmlns="http://www.w3.org/2000/svg" width="12" height="12" viewBox="0 0 12 12" fill="none">
<path fillRule="evenodd" clipRule="evenodd" d="M2.66658 1.01118C3.65328 0.351894 4.81331 0 6 0C7.59077 0.00172054 9.1159 0.634414 10.2407 1.75926C11.3656 2.8841 11.9983 4.40923 12 6C12 7.18669 11.6481 8.34673 10.9888 9.33342C10.3295 10.3201 9.39246 11.0891 8.2961 11.5433C7.19975 11.9974 5.99335 12.1162 4.82946 11.8847C3.66557 11.6532 2.59648 11.0818 1.75736 10.2426C0.918247 9.40352 0.346802 8.33443 0.115291 7.17054C-0.11622 6.00665 0.00259972 4.80026 0.456725 3.7039C0.910851 2.60754 1.67989 1.67047 2.66658 1.01118ZM3.22215 10.1573C4.0444 10.7068 5.0111 11 6 11C7.32564 10.9985 8.59656 10.4713 9.53393 9.53392C10.4713 8.59656 10.9985 7.32563 11 6C11 5.01109 10.7068 4.04439 10.1573 3.22215C9.60794 2.3999 8.82705 1.75904 7.91342 1.3806C6.99979 1.00216 5.99446 0.903147 5.02455 1.09607C4.05465 1.289 3.16373 1.7652 2.46447 2.46447C1.76521 3.16373 1.289 4.05464 1.09608 5.02455C0.90315 5.99445 1.00217 6.99979 1.3806 7.91342C1.75904 8.82705 2.39991 9.60794 3.22215 10.1573ZM5.64645 3.14645C5.74022 3.05268 5.86739 3 6 3C6.13261 3 6.25979 3.05268 6.35356 3.14645C6.44732 3.24021 6.5 3.36739 6.5 3.5V5.9395C6.50091 6.0251 6.47982 6.1095 6.43876 6.18462C6.3977 6.25973 6.33805 6.32305 6.2655 6.3685L4.3455 7.5685C4.23279 7.63891 4.09671 7.66167 3.96722 7.63176C3.83773 7.60184 3.72542 7.52172 3.655 7.409C3.58459 7.29628 3.56183 7.16021 3.59175 7.03071C3.62166 6.90122 3.70179 6.78891 3.8145 6.7185L5.5 5.6625V3.5C5.5 3.36739 5.55268 3.24021 5.64645 3.14645Z" fill="#424242"/>
</svg>