<svg xmlns="http://www.w3.org/2000/svg" width="12" height="13" viewBox="0 0 12 13" fill="none">
<path fillRule="evenodd" clipRule="evenodd" d="M10.8117 2.4041C11.5146 3.3421 11.9277 4.4653 12 5.63523V9.51155C11.9993 10.1744 11.7357 10.8098 11.2671 11.2785C10.7984 11.7472 10.1629 12.0108 9.50012 12.0114H6.00878C4.83662 12.012 3.68989 11.6696 2.70999 11.0264C1.73009 10.3831 0.959837 9.46717 0.494199 8.39146C0.0285612 7.31575 -0.112109 6.12729 0.0895311 4.9726C0.291171 3.8179 0.826306 2.74746 1.62896 1.89322C2.43162 1.03899 3.46671 0.438309 4.60663 0.165241C5.74654 -0.107828 6.94145 -0.0413488 8.04404 0.356481C9.14664 0.754311 10.1087 1.4661 10.8117 2.4041ZM10.5607 10.5722C10.842 10.2909 11 9.90936 11 9.51155V5.68273C10.954 5.00458 10.7707 4.34285 10.4613 3.73764C10.1519 3.13243 9.72287 2.59635 9.20013 2.1619C8.30508 1.41589 7.17596 1.00877 6.01078 1.01195C5.79349 1.01224 5.57642 1.02593 5.36081 1.05295C4.25552 1.199 3.23026 1.70875 2.44667 2.50184C1.66308 3.29494 1.16573 4.32627 1.03302 5.43324C0.948969 6.13506 1.01595 6.84673 1.22945 7.52054C1.44296 8.19435 1.79807 8.81472 2.27096 9.34006C2.74157 9.86566 3.31768 10.2862 3.96173 10.5742C4.60577 10.8621 5.30328 11.0112 6.00878 11.0115H9.50012C9.89792 11.0115 10.2794 10.8535 10.5607 10.5722ZM6.00029 4.51179H4.00038C3.86778 4.51179 3.74061 4.45912 3.64684 4.36535C3.55308 4.27159 3.5004 4.14442 3.5004 4.01182C3.5004 3.87921 3.55308 3.75204 3.64684 3.65828C3.74061 3.56452 3.86778 3.51184 4.00038 3.51184H6.00029C6.13289 3.51184 6.26006 3.56452 6.35382 3.65828C6.44759 3.75204 6.50026 3.87921 6.50026 4.01182C6.50026 4.14442 6.44759 4.27159 6.35382 4.36535C6.26006 4.45912 6.13289 4.51179 6.00029 4.51179ZM8.00019 5.51169H4.00038C3.86778 5.51169 3.74061 5.56437 3.64684 5.65813C3.55308 5.7519 3.5004 5.87907 3.5004 6.01167C3.5004 6.14427 3.55308 6.27144 3.64684 6.36521C3.74061 6.45897 3.86778 6.51165 4.00038 6.51165H8.00019C8.13279 6.51165 8.25996 6.45897 8.35373 6.36521C8.44749 6.27144 8.50017 6.14427 8.50017 6.01167C8.50017 5.87907 8.44749 5.7519 8.35373 5.65813C8.25996 5.56437 8.13279 5.51169 8.00019 5.51169ZM4.00038 7.51164H8.00019C8.13279 7.51164 8.25996 7.56432 8.35373 7.65808C8.44749 7.75185 8.50017 7.87902 8.50017 8.01162C8.50017 8.14422 8.44749 8.27139 8.35373 8.36516C8.25996 8.45892 8.13279 8.5116 8.00019 8.5116H4.00038C3.86778 8.5116 3.74061 8.45892 3.64684 8.36516C3.55308 8.27139 3.5004 8.14422 3.5004 8.01162C3.5004 7.87902 3.55308 7.75185 3.64684 7.65808C3.74061 7.56432 3.86778 7.51164 4.00038 7.51164Z" fill="#424242"/>
</svg>