<svg width="29" height="29" viewBox="0 0 29 29" fill="none" xmlns="http://www.w3.org/2000/svg">
<rect opacity="0.25" width="29" height="29" rx="9" fill="url(#paint0_linear)"/>
<path d="M14.5 6C12.8189 6 11.1755 6.49852 9.77766 7.43251C8.37984 8.3665 7.29037 9.69402 6.64703 11.2472C6.00368 12.8004 5.83535 14.5094 6.16333 16.1583C6.4913 17.8071 7.30085 19.3217 8.4896 20.5104C9.67834 21.6992 11.1929 22.5087 12.8417 22.8367C14.4906 23.1646 16.1996 22.9963 17.7528 22.353C19.306 21.7096 20.6335 20.6202 21.5675 19.2223C22.5015 17.8245 23 16.1811 23 14.5C22.9976 12.2464 22.1012 10.0858 20.5077 8.49228C18.9142 6.89875 16.7536 6.00244 14.5 6V6ZM15.2083 14.4143C15.2084 14.5344 15.178 14.6525 15.1199 14.7576C15.0617 14.8626 14.9779 14.9512 14.8761 15.015L12.1561 16.715C12.0771 16.7643 11.989 16.7977 11.8971 16.8131C11.8051 16.8284 11.7111 16.8256 11.6202 16.8046C11.5294 16.7836 11.4436 16.7449 11.3677 16.6908C11.2918 16.6366 11.2273 16.5681 11.1779 16.489C11.1285 16.4099 11.0952 16.3219 11.0798 16.23C11.0644 16.138 11.0673 16.0439 11.0883 15.9531C11.1093 15.8623 11.148 15.7764 11.2021 15.7006C11.2562 15.6247 11.3248 15.5602 11.4039 15.5108L13.7917 14.0219V10.9583C13.7917 10.7705 13.8663 10.5903 13.9991 10.4575C14.132 10.3246 14.3121 10.25 14.5 10.25C14.6879 10.25 14.868 10.3246 15.0009 10.4575C15.1337 10.5903 15.2083 10.7705 15.2083 10.9583V14.4143Z" fill="url(#paint1_linear)"/>
<defs>
<linearGradient id="paint0_linear" x1="0" y1="0" x2="33.5305" y2="6.86197" gradientUnits="userSpaceOnUse">
<stop stop-color="#A129FF"/>
<stop offset="1" stop-color="#7B61FF"/>
</linearGradient>
<linearGradient id="paint1_linear" x1="6" y1="6" x2="25.6558" y2="10.0225" gradientUnits="userSpaceOnUse">
<stop stop-color="#A129FF"/>
<stop offset="1" stop-color="#7B61FF"/>
</linearGradient>
</defs>
</svg>
