<svg id="icon-dashboard" width="20" height="18" viewBox="0 0 20 18" fill="currentColor" xmlns="http://www.w3.org/2000/svg">
<path d="M19.9133 8.54656C19.5859 6.07388 18.3113 3.81629 16.3484 2.23266C14.3855 0.649033 11.8817 -0.141792 9.34586 0.0209264C6.81005 0.183645 4.43254 1.28769 2.69657 3.10867C0.960592 4.92965 -0.00356625 7.3309 6.1701e-05 9.82436C-0.00474114 11.159 0.270897 12.4803 0.809768 13.7057C1.34864 14.9311 2.13917 16.0344 3.13202 16.9467C3.89134 17.6364 4.89185 18.0134 5.92654 17.9996H14.0643C15.1574 18.0022 16.2076 17.5825 16.988 16.8314C18.1 15.7698 18.9437 14.4677 19.4516 13.0293C19.9596 11.5908 20.1177 10.0557 19.9133 8.54656ZM15.8232 15.659C15.3544 16.1122 14.7224 16.3658 14.0643 16.3646H5.92654C5.31771 16.3768 4.72716 16.1601 4.27599 15.7588C3.44886 14.9986 2.79027 14.0793 2.34129 13.0583C1.89231 12.0372 1.66258 10.9364 1.66644 9.82436C1.66726 8.67347 1.91538 7.53569 2.3946 6.48525C2.87382 5.4348 3.57338 4.49531 4.44763 3.72805C5.96665 2.38396 7.94123 1.64284 9.98668 1.64908C10.3135 1.64921 10.6401 1.66722 10.9648 1.70303C12.5276 1.88112 14.0069 2.48995 15.2316 3.45902C16.4562 4.42809 17.3759 5.71773 17.8843 7.17858C18.3927 8.63943 18.469 10.2117 18.1042 11.7133C17.7394 13.2149 16.9485 14.5844 15.8232 15.6631V15.659ZM6.50478 13.3275C6.66277 13.4792 6.75285 13.6864 6.7552 13.9033C6.75754 14.1203 6.67196 14.3292 6.51727 14.4843C6.36259 14.6393 6.15148 14.7277 5.93038 14.73C5.70928 14.7323 5.49631 14.6483 5.33831 14.4965C4.39261 13.5876 3.74416 12.4229 3.47564 11.151C3.20711 9.87905 3.33067 8.55747 3.83056 7.3547C4.33044 6.15193 5.18402 5.12246 6.28248 4.39751C7.38094 3.67255 8.67452 3.28496 9.99834 3.28413C10.317 3.28404 10.6352 3.30617 10.9507 3.35035C11.059 3.36568 11.1632 3.40179 11.2573 3.45664C11.3514 3.51149 11.4336 3.584 11.4991 3.67002C11.5647 3.75603 11.6123 3.85388 11.6393 3.95796C11.6662 4.06204 11.6721 4.17032 11.6564 4.27661C11.642 4.38349 11.6061 4.48646 11.5505 4.57949C11.495 4.67252 11.4211 4.75372 11.3332 4.81831C11.2452 4.88291 11.145 4.92959 11.0384 4.95562C10.9318 4.98165 10.8209 4.98649 10.7124 4.96987C9.66964 4.82373 8.60648 5.00451 7.67465 5.48639C6.74282 5.96828 5.98992 6.72665 5.52341 7.65329C5.0569 8.57993 4.9006 9.62748 5.07684 10.6464C5.25307 11.6654 5.75282 12.6037 6.50478 13.3275ZM16.5964 8.88992C16.6414 9.19944 16.664 9.5117 16.6639 9.82436C16.6666 10.6956 16.4903 11.5584 16.1456 12.3613C15.8009 13.1642 15.2948 13.8906 14.6575 14.4973C14.4993 14.6491 14.2861 14.733 14.0649 14.7306C13.8436 14.7281 13.6324 14.6395 13.4777 14.4843C13.3231 14.329 13.2376 14.1198 13.2401 13.9027C13.2426 13.6856 13.3329 13.4784 13.4911 13.3266C14.054 12.7882 14.4791 12.1268 14.7317 11.3963C14.9842 10.6658 15.057 9.8871 14.9442 9.12373C14.9126 8.90897 14.9692 8.69069 15.1016 8.5169C15.234 8.34312 15.4314 8.22807 15.6503 8.19707C15.8692 8.16606 16.0916 8.22164 16.2687 8.35157C16.4459 8.48151 16.5631 8.67516 16.5947 8.88992H16.5964ZM11.6031 9.40578C11.7033 9.75957 11.6814 10.136 11.5406 10.4762C11.3998 10.8165 11.1482 11.1014 10.825 11.2865C10.5017 11.4716 10.1251 11.5465 9.75398 11.4994C9.38282 11.4523 9.038 11.286 8.77336 11.0263C8.50873 10.7666 8.33919 10.4283 8.29121 10.0641C8.24324 9.69994 8.31954 9.33042 8.50819 9.01327C8.69684 8.69613 8.98722 8.44921 9.33398 8.31109C9.68075 8.17297 10.0644 8.15141 10.4249 8.2498L13.5752 5.15872C13.6521 5.08064 13.744 5.01836 13.8457 4.97551C13.9473 4.93267 14.0567 4.91012 14.1673 4.90917C14.2779 4.90823 14.3876 4.92891 14.49 4.97002C14.5924 5.01113 14.6855 5.07183 14.7637 5.14859C14.8419 5.22535 14.9038 5.31663 14.9457 5.4171C14.9876 5.51757 15.0086 5.62522 15.0077 5.73377C15.0067 5.84232 14.9837 5.9496 14.9401 6.04934C14.8964 6.14908 14.8329 6.23929 14.7534 6.31471L11.6031 9.40578Z" fill="currentColor"/>
</svg>
