<svg width="54" height="54" viewBox="0 0 54 54" fill="none" xmlns="http://www.w3.org/2000/svg">
<rect opacity="0.25" width="54" height="54" rx="9" fill="url(#paint0_linear)"/>
<path fill-rule="evenodd" clip-rule="evenodd" d="M39.9602 25.6518C38.8641 22.3256 37.6329 20.5533 37.5334 20.4101L37.5272 20.4011C37.4543 20.3226 35.6477 18.4127 31.2934 17L30.7181 18.3839C32.7895 19.056 34.2592 19.8758 35.0675 20.4056C32.6544 19.7691 29.7838 19.3792 27.2414 19.3792C24.699 19.3792 21.8284 19.7691 19.4154 20.4056C20.2236 19.8759 21.6932 19.056 23.7647 18.3839L23.1893 17C18.8351 18.4127 17.0284 20.3226 16.9555 20.4011L16.9492 20.4103C16.8491 20.5544 15.6183 22.3266 14.5227 25.6518C13.4301 28.9678 13.0151 33.6456 13 33.8333L13.0092 33.8463C13.1948 34.1106 15.4669 37.3448 21.4387 37.3448L22.9855 35.3662C21.2526 34.9598 19.6002 34.3043 18.0876 33.4149L19.0124 32.1876C21.4526 33.6224 24.2981 34.381 27.2414 34.381C30.1845 34.381 33.0302 33.6224 35.4705 32.1876L36.3951 33.4149C34.8826 34.3043 33.2301 34.9598 31.4972 35.3662L33.044 37.3448C39.0162 37.3448 41.2881 34.1103 41.4736 33.8463L41.4828 33.8333C41.4676 33.6456 41.0526 28.9678 39.9602 25.6518ZM23.3826 29.5085H21.7136V27.0513H23.3826V29.5085ZM31.0995 29.5085H32.7684V27.0513H31.0995V29.5085Z" fill="url(#paint1_linear)"/>
<defs>
<linearGradient id="paint0_linear" x1="0" y1="0" x2="62.4361" y2="12.7775" gradientUnits="userSpaceOnUse">
<stop stop-color="#A129FF"/>
<stop offset="1" stop-color="#7B61FF"/>
</linearGradient>
<linearGradient id="paint1_linear" x1="13" y1="17" x2="44.7088" y2="26.0848" gradientUnits="userSpaceOnUse">
<stop stop-color="#A129FF"/>
<stop offset="1" stop-color="#7B61FF"/>
</linearGradient>
</defs>
</svg>
