<svg id="icon-guides" width="20" height="20" viewBox="0 0 20 20" fill="currentColor" xmlns="http://www.w3.org/2000/svg">
<path d="M12.4956 1.90676C11.4787 0.99813 10.2334 0.384057 8.89362 0.130621C7.55383 -0.122814 6.17032 -0.00601636 4.89196 0.468445C3.6136 0.942907 2.4888 1.75707 1.6386 2.82331C0.78841 3.88955 0.245014 5.16751 0.0668957 6.51964C-0.0930719 7.70523 0.0348652 8.91192 0.43988 10.0376C0.844895 11.1633 1.51507 12.1748 2.39368 12.9865C2.93701 13.4631 3.37544 14.0473 3.68119 14.7023C3.98693 15.3572 4.15331 16.0685 4.1698 16.7911V16.9253C4.17068 17.7405 4.49484 18.522 5.07114 19.0985C5.64745 19.6749 6.42883 19.9991 7.24385 20H7.76036C8.57538 19.9991 9.35676 19.6749 9.93307 19.0985C10.5094 18.522 10.8335 17.7405 10.8344 16.9253V16.4678C10.8469 15.8291 10.9972 15.2006 11.2749 14.6254C11.5527 14.0501 11.9515 13.5417 12.4439 13.1348C13.2425 12.4353 13.8833 11.574 14.324 10.608C14.7646 9.64199 14.995 8.59338 14.9999 7.5316C15.0048 6.46983 14.7841 5.41914 14.3523 4.44914C13.9206 3.47914 13.2877 2.61197 12.4956 1.90509V1.90676ZM7.76036 18.3335H7.24385C6.87059 18.3331 6.51274 18.1845 6.2488 17.9206C5.98487 17.6566 5.83639 17.2986 5.83595 16.9253C5.83595 16.9253 5.83012 16.7087 5.82929 16.667H9.16826V16.9253C9.16782 17.2986 9.01935 17.6566 8.75541 17.9206C8.49147 18.1845 8.13362 18.3331 7.76036 18.3335ZM11.3426 11.8833C10.3941 12.7062 9.70907 13.7904 9.3732 15.0005H8.33518V9.0144C8.82079 8.84268 9.24149 8.52509 9.53974 8.10507C9.83798 7.68505 9.9992 7.18313 10.0013 6.66796C10.0013 6.44697 9.91357 6.23503 9.75733 6.07876C9.6011 5.9225 9.3892 5.83471 9.16826 5.83471C8.94731 5.83471 8.73542 5.9225 8.57919 6.07876C8.42295 6.23503 8.33518 6.44697 8.33518 6.66796C8.33518 6.88895 8.24741 7.10089 8.09118 7.25716C7.93495 7.41342 7.72305 7.50121 7.50211 7.50121C7.28116 7.50121 7.06926 7.41342 6.91303 7.25716C6.7568 7.10089 6.66903 6.88895 6.66903 6.66796C6.66903 6.44697 6.58126 6.23503 6.42503 6.07876C6.26879 5.9225 6.0569 5.83471 5.83595 5.83471C5.61501 5.83471 5.40311 5.9225 5.24688 6.07876C5.09065 6.23503 5.00288 6.44697 5.00288 6.66796C5.00501 7.18313 5.16623 7.68505 5.46447 8.10507C5.76272 8.52509 6.18342 8.84268 6.66903 9.0144V15.0005H5.5677C5.19198 13.7583 4.4873 12.6409 3.52833 11.7666C2.71438 11.008 2.13436 10.0324 1.85674 8.95481C1.57911 7.87724 1.61546 6.74272 1.96149 5.68513C2.30752 4.62755 2.94879 3.69104 3.80963 2.98612C4.67047 2.2812 5.71495 1.83729 6.81982 1.70678C7.04886 1.6812 7.27914 1.66841 7.5096 1.66845C8.94047 1.66419 10.3218 2.19225 11.3851 3.14997C12.0013 3.69958 12.4937 4.37392 12.8296 5.1283C13.1655 5.88267 13.3372 6.69984 13.3335 7.52565C13.3297 8.35145 13.1505 9.16701 12.8077 9.91828C12.4649 10.6695 11.9663 11.3393 11.3451 11.8833H11.3426Z" fill="currentColor"/>
</svg>