<svg width="12" height="12" viewBox="0 0 12 12" fill="none" xmlns="http://www.w3.org/2000/svg">
<path d="M7.42539 10.4864V10.837C7.42539 11.116 7.21184 11.3481 6.93396 11.3877L6.84391 11.7062C6.79503 11.879 6.63293 12 6.44511 12H5.55232C5.36449 12 5.2024 11.879 5.15352 11.7062L5.06604 11.3877C4.78559 11.3457 4.57204 11.116 4.57204 10.8346V10.484C4.57204 10.2963 4.72899 10.1457 4.92453 10.1457H7.0729C7.26844 10.1481 7.42539 10.2988 7.42539 10.4864ZM9.07976 5.76049C9.07976 6.55802 8.75043 7.28148 8.21527 7.81235C7.80875 8.21728 7.54631 8.73333 7.45883 9.28395C7.42024 9.52099 7.20669 9.6963 6.95455 9.6963H5.04288C4.79331 9.6963 4.57719 9.52346 4.54117 9.28642C4.45111 8.7358 4.18611 8.21235 3.77959 7.80988C3.25472 7.28642 2.92796 6.57531 2.92024 5.79259C2.90223 4.14815 4.26587 2.81728 5.97942 2.80494C7.69039 2.79259 9.07976 4.12099 9.07976 5.76049ZM6 1.83457C6.19039 1.83457 6.34734 1.68642 6.34734 1.50123V0.333333C6.34734 0.150617 6.19297 0 6 0C5.80703 0 5.65266 0.148148 5.65266 0.333333V1.50123C5.65266 1.68642 5.80961 1.83457 6 1.83457ZM1.91166 5.75802C1.91166 5.57531 1.75729 5.42469 1.56432 5.42469H0.347341C0.156947 5.42469 0 5.57284 0 5.75802C0 5.94074 0.154374 6.09136 0.347341 6.09136H1.56432C1.75729 6.09136 1.91166 5.94321 1.91166 5.75802ZM11.6527 5.42469H10.4357C10.2453 5.42469 10.0883 5.57284 10.0883 5.75802C10.0883 5.94074 10.2427 6.09136 10.4357 6.09136H11.6527C11.8431 6.09136 12 5.94321 12 5.75802C12 5.57531 11.8456 5.42469 11.6527 5.42469ZM2.61921 8.53333L1.75729 9.36049C1.62093 9.49136 1.62093 9.70123 1.75729 9.8321C1.82419 9.8963 1.91424 9.9284 2.00172 9.9284C2.08919 9.9284 2.17925 9.8963 2.24614 9.8321L3.10806 9.00494C3.24443 8.87407 3.24443 8.6642 3.10806 8.53333C2.97427 8.40247 2.753 8.40247 2.61921 8.53333ZM9.13636 3.08148C9.22384 3.08148 9.31389 3.04938 9.38079 2.98519L10.2427 2.15802C10.3791 2.02716 10.3791 1.81728 10.2427 1.68642C10.1063 1.55556 9.88765 1.55556 9.75129 1.68642L8.88937 2.51358C8.753 2.64444 8.753 2.85432 8.88937 2.98519C8.95883 3.04938 9.04631 3.08148 9.13636 3.08148ZM2.61921 2.98272C2.68611 3.04691 2.77616 3.07901 2.86364 3.07901C2.95111 3.07901 3.04117 3.04691 3.10806 2.98272C3.24443 2.85185 3.24443 2.64198 3.10806 2.51111L2.24614 1.68395C2.10978 1.55309 1.89108 1.55309 1.75472 1.68395C1.61835 1.81481 1.61835 2.02469 1.75472 2.15556L2.61921 2.98272ZM9.38079 8.53333C9.24443 8.40247 9.02573 8.40247 8.88937 8.53333C8.753 8.6642 8.753 8.87407 8.88937 9.00494L9.75129 9.8321C9.81818 9.8963 9.90823 9.9284 9.99571 9.9284C10.0832 9.9284 10.1732 9.8963 10.2401 9.8321C10.3765 9.70123 10.3765 9.49136 10.2401 9.36049L9.38079 8.53333Z" fill="#05FCED"/>
</svg>
