<svg width="16" height="9" viewBox="0 0 11 7" fill="none" xmlns="http://www.w3.org/2000/svg">
<path d="M10.8298 0.174604C10.7738 0.11739 10.7075 0.0725062 10.635 0.042562C10.5624 0.0126178 10.4849 -0.00178955 10.407 0.00017739H6.96057C6.84301 0.0013121 6.72836 0.0389354 6.63088 0.108366C6.53341 0.177797 6.45742 0.275969 6.41236 0.390667C6.3673 0.505366 6.35518 0.631526 6.37748 0.75345C6.39979 0.875373 6.45554 0.987677 6.53781 1.07639C6.59355 1.13401 6.65972 1.17915 6.73236 1.20912C6.805 1.23909 6.88262 1.25327 6.96057 1.25081H8.94223L6.32644 3.98931L4.58422 2.14911C4.53076 2.09044 4.46664 2.04378 4.3957 2.0119C4.32476 1.98002 4.24847 1.96359 4.17138 1.96359C4.09428 1.96359 4.01799 1.98002 3.94705 2.0119C3.87611 2.04378 3.81199 2.09044 3.75853 2.14911L0.16841 5.93416C0.0874873 6.02201 0.032674 6.13295 0.0107284 6.2533C-0.0112171 6.37366 0.00066474 6.49817 0.0449094 6.61148C0.0891541 6.72479 0.163827 6.82194 0.25972 6.89096C0.355614 6.95998 0.468535 6.99785 0.58456 6.9999C0.746147 7.00279 0.902678 6.9404 1.02218 6.82548L4.18789 3.48521L5.93176 5.32716C5.98522 5.38582 6.04934 5.43249 6.12027 5.46436C6.19121 5.49624 6.26751 5.51267 6.3446 5.51267C6.42169 5.51267 6.49799 5.49624 6.56893 5.46436C6.63987 5.43249 6.70399 5.38582 6.75745 5.32716L9.81252 2.0898V4.26141C9.81094 4.34425 9.82525 4.42657 9.85458 4.50341C9.88392 4.58025 9.92768 4.65003 9.98323 4.70854C10.0388 4.76704 10.105 4.81307 10.1778 4.84384C10.2506 4.87462 10.3286 4.8895 10.407 4.8876C10.5632 4.88404 10.712 4.81693 10.8225 4.70026C10.933 4.58359 10.9965 4.42637 10.9999 4.26141V0.621135C11.0015 0.538428 10.9873 0.45622 10.9581 0.379474C10.9289 0.302727 10.8852 0.233035 10.8298 0.174604Z" fill="#7B61FF"/>
</svg>
