<svg xmlns="http://www.w3.org/2000/svg" width="13" height="11" viewBox="0 0 13 11" fill="none">
<path fillRule="evenodd" clipRule="evenodd" d="M2.06159 3.09433C2.1491 3.29466 2.34411 3.41402 2.54875 3.41402C2.62009 3.41402 2.69251 3.39955 2.76199 3.36895L4.81589 2.46417C5.00915 2.37904 5.13403 2.1871 5.13403 1.97507C5.13403 1.76304 5.00915 1.5711 4.81589 1.48597L2.76199 0.581193C2.49335 0.462843 2.17956 0.585626 2.06159 0.855814C1.94367 1.12595 2.06606 1.44094 2.33502 1.5594L3.27855 1.97507L2.33502 2.39074C2.06606 2.5092 1.94367 2.82419 2.06159 3.09433ZM8.55309 2.46419L10.607 3.36896C10.6764 3.39956 10.7489 3.41403 10.8202 3.41403C11.0248 3.41403 11.2199 3.29467 11.3074 3.09434C11.4253 2.8242 11.3029 2.50921 11.034 2.39075L10.0904 1.97508L11.034 1.55941C11.3029 1.44095 11.4253 1.12596 11.3074 0.855824C11.1894 0.585636 10.8757 0.462853 10.607 0.581204L8.55309 1.48598C8.35978 1.57111 8.23495 1.76305 8.23495 1.97508C8.23495 2.18711 8.35978 2.37905 8.55309 2.46419ZM6.68445 9.98301C5.33463 9.98301 4.09795 9.49706 3.13767 8.69013C3.96572 7.6387 5.24622 6.96325 6.68445 6.96325C8.1228 6.96325 9.40318 7.6387 10.2313 8.69013C9.27101 9.49706 8.03433 9.98301 6.68445 9.98301ZM12.216 4.37524H1.15299C0.859414 4.37524 0.621338 4.61435 0.621338 4.90932C0.621338 8.26773 3.34124 11 6.68445 11C10.0277 11 12.7476 8.26773 12.7476 4.90932C12.7476 4.61435 12.5095 4.37524 12.216 4.37524Z" fill="#D3B23D"/>
</svg>