<svg width="22" height="22" viewBox="0 0 22 22" fill="none" xmlns="http://www.w3.org/2000/svg">
<path fill-rule="evenodd" clip-rule="evenodd" d="M4.58333 0H17.4167C18.6318 0.00145554 19.7967 0.484808 20.656 1.34403C21.5152 2.20326 21.9985 3.3682 22 4.58333V17.4167C21.9985 18.6318 21.5152 19.7967 20.656 20.656C19.7967 21.5152 18.6318 21.9985 17.4167 22H4.58333C3.3682 21.9985 2.20326 21.5152 1.34403 20.656C0.484808 19.7967 0.00145554 18.6318 0 17.4167V4.58333C0.00145554 3.3682 0.484808 2.20326 1.34403 1.34403C2.20326 0.484808 3.3682 0.00145554 4.58333 0ZM17.4167 1.83333H4.58333C3.85399 1.83333 3.15451 2.12306 2.63879 2.63879C2.12306 3.15451 1.83333 3.85399 1.83333 4.58333V13.3705L5.00958 10.1952C5.4352 9.76944 5.94052 9.43172 6.49667 9.20131C7.05283 8.9709 7.64892 8.85231 8.25092 8.85231C8.85291 8.85231 9.44901 8.9709 10.0052 9.20131C10.5613 9.43172 11.0666 9.76944 11.4923 10.1952L19.8917 18.5946C20.0711 18.2277 20.1651 17.825 20.1667 17.4167V4.58333C20.1667 3.85399 19.8769 3.15451 19.3612 2.63879C18.8455 2.12306 18.146 1.83333 17.4167 1.83333ZM2.63879 19.3612C3.15451 19.8769 3.85399 20.1667 4.58333 20.1667H17.4167C17.825 20.1651 18.2277 20.0711 18.5946 19.8917L10.1952 11.4913C9.93978 11.2358 9.63655 11.0331 9.30279 10.8948C8.96903 10.7564 8.61128 10.6853 8.25 10.6853C7.88872 10.6853 7.53097 10.7564 7.19721 10.8948C6.86345 11.0331 6.56022 11.2358 6.30483 11.4913L1.83333 15.9628V17.4167C1.83333 18.146 2.12306 18.8455 2.63879 19.3612ZM16.4491 9.0843C15.9215 9.43684 15.3012 9.625 14.6667 9.625C13.8158 9.625 12.9997 9.28698 12.398 8.6853C11.7964 8.08362 11.4583 7.26757 11.4583 6.41667C11.4583 5.78212 11.6465 5.16182 11.999 4.63421C12.3516 4.10661 12.8526 3.69539 13.4389 3.45255C14.0251 3.20972 14.6702 3.14619 15.2926 3.26998C15.9149 3.39378 16.4866 3.69934 16.9353 4.14803C17.384 4.59673 17.6896 5.1684 17.8134 5.79075C17.9371 6.41311 17.8736 7.0582 17.6308 7.64444C17.3879 8.23069 16.9767 8.73176 16.4491 9.0843ZM15.4306 5.2734C15.2045 5.12231 14.9386 5.04167 14.6667 5.04167C14.302 5.04167 13.9523 5.18653 13.6944 5.4444C13.4365 5.70226 13.2917 6.052 13.2917 6.41667C13.2917 6.68862 13.3723 6.95446 13.5234 7.18058C13.6745 7.40669 13.8892 7.58293 14.1405 7.687C14.3917 7.79107 14.6682 7.8183 14.9349 7.76525C15.2016 7.71219 15.4466 7.58124 15.6389 7.38894C15.8312 7.19664 15.9622 6.95164 16.0152 6.68492C16.0683 6.41819 16.0411 6.14173 15.937 5.89048C15.8329 5.63923 15.6567 5.42448 15.4306 5.2734Z" fill="#5E5E5E"/>
</svg>
