<svg width="16" height="16" viewBox="0 0 16 16" fill="none" xmlns="http://www.w3.org/2000/svg">
<path opacity="0.5" d="M14.5569 7.52589H8.46917V2.73283C8.46917 2.45914 8.25892 2.23711 7.99929 2.23711C7.73966 2.23711 7.52942 2.45914 7.52942 2.73283V7.52589H1.44507C1.52812 6.20679 1.96958 4.94098 2.71615 3.87946C3.46295 2.81794 4.48355 2.00563 5.65606 1.53962C4.85398 2.75378 4.33736 4.15198 4.14893 5.6186C4.11134 5.86 4.08008 6.10441 4.05495 6.34904C4.04949 6.39608 4.06369 6.44357 4.09363 6.47885C4.12357 6.51436 4.16663 6.53442 4.21165 6.53418H4.83821C4.91667 6.53303 4.98223 6.47101 4.99163 6.3887C5.01349 6.18372 5.03862 5.98221 5.06987 5.78044C5.51177 3.01384 6.71486 1.08004 7.99948 1.08004C9.2841 1.08004 10.506 3.01384 10.9258 5.78044C10.9571 5.98196 10.9822 6.1837 11.0074 6.3887H11.0071C11.0152 6.4717 11.0817 6.53465 11.1608 6.53418H11.7873C11.8324 6.53442 11.8754 6.51436 11.9054 6.47885C11.9353 6.44357 11.9495 6.39608 11.944 6.34904C11.9189 6.10441 11.8877 5.85977 11.8501 5.6186C11.6632 4.15311 11.1476 2.75585 10.3462 1.54281C12.1545 2.2742 13.5669 3.80674 14.2093 5.73411C14.3891 6.24275 14.8048 6.61767 15.309 6.7258C15.3396 6.73156 15.3711 6.72119 15.3934 6.69836C15.4156 6.67554 15.4261 6.64279 15.4218 6.61028C15.0076 4.02696 13.4116 1.82619 11.1566 0.729139C8.90141 -0.367913 6.27862 -0.219876 4.14745 1.12502C2.01639 2.46993 0.651984 4.8381 0.501876 7.45317C0.485485 7.72686 0.577059 7.9957 0.755169 8.19536C0.933285 8.39503 1.18177 8.50824 1.44182 8.50755H7.52953V13.2444C7.52953 13.5183 7.73977 13.7401 7.9994 13.7401C8.25903 13.7401 8.46927 13.5183 8.46927 13.2444V8.51747H14.557C14.4741 9.83469 14.034 11.0991 13.289 12.1598C12.5442 13.2206 11.5257 14.0331 10.3556 14.5005C11.0795 13.5088 11.6275 12.0147 11.8846 10.2267C11.9097 10.0514 11.9285 9.87298 11.9473 9.69452L11.9471 9.69429C11.9525 9.64726 11.9385 9.59976 11.9084 9.56448C11.8784 9.52898 11.8354 9.50892 11.7904 9.50915H11.1638C11.0854 9.5103 11.0198 9.57232 11.0104 9.65463C10.9947 9.79666 10.9759 9.93893 10.9571 10.081C10.5497 12.9105 9.30592 14.9633 7.99948 14.9633C6.57085 14.9633 5.33322 12.6495 4.99798 9.65462C4.98836 9.57115 4.92105 9.50866 4.84128 9.50913H4.21472C4.1697 9.5089 4.12665 9.52896 4.0967 9.56447C4.06676 9.59974 4.05256 9.64724 4.05802 9.69428C4.26804 11.6777 4.84437 13.3765 5.64969 14.497C3.83289 13.7576 2.4174 12.211 1.78032 10.2693C1.63127 9.79041 1.27722 9.4132 0.824615 9.25135L0.689993 9.205C0.658303 9.19394 0.623555 9.20131 0.598423 9.22437C0.573291 9.24743 0.561707 9.28293 0.567826 9.31752C0.943506 11.8003 2.4126 13.9483 4.52744 15.1071C6.64255 16.266 9.153 16.2985 11.2944 15.1947C13.4355 14.091 14.9541 11.9815 15.3873 9.50914C15.4391 9.20732 15.4756 8.90277 15.497 8.59678C15.518 8.32033 15.4284 8.04733 15.2498 7.84373C15.071 7.64037 14.8199 7.52509 14.557 7.52601L14.5569 7.52589Z" fill="white"/>
</svg>
