<svg width="21" height="22" viewBox="0 0 21 22" fill="none" xmlns="http://www.w3.org/2000/svg">
<path d="M19.6796 10.3481H11.1568V3.75764C11.1568 3.38132 10.8625 3.07602 10.499 3.07602C10.1355 3.07602 9.84119 3.38132 9.84119 3.75764V10.3481H1.3231C1.43937 8.53433 2.05741 6.79385 3.10261 5.33426C4.14813 3.87467 5.57697 2.75774 7.21848 2.11698C6.09558 3.78645 5.3723 5.70898 5.1085 7.72557C5.05587 8.0575 5.01212 8.39356 4.97693 8.72993C4.96928 8.7946 4.98917 8.85992 5.03109 8.90842C5.073 8.95724 5.13328 8.98482 5.19631 8.9845H6.0735C6.18334 8.98292 6.27513 8.89764 6.28829 8.78446C6.31888 8.50261 6.35407 8.22553 6.39782 7.9481C7.01648 4.14404 8.7008 1.48506 10.4993 1.48506C12.2977 1.48506 14.0084 4.14404 14.5962 7.9481C14.6399 8.22519 14.6751 8.50259 14.7103 8.78446H14.71C14.7213 8.89859 14.8143 8.98515 14.9251 8.9845H15.8023C15.8653 8.98482 15.9256 8.95724 15.9675 8.90842C16.0094 8.85991 16.0293 8.79461 16.0217 8.72993C15.9865 8.39356 15.9427 8.05718 15.8901 7.72557C15.6285 5.71052 14.9067 3.78929 13.7847 2.12136C16.3163 3.12702 18.2937 5.23427 19.193 7.8844C19.4448 8.58378 20.0268 9.09929 20.7326 9.24798C20.7754 9.2559 20.8195 9.24164 20.8507 9.21025C20.8819 9.17886 20.8966 9.13384 20.8905 9.08914C20.3107 5.53708 18.0762 2.51101 14.9193 1.00257C11.762 -0.50588 8.09007 -0.302329 5.10643 1.54691C2.12295 3.39615 0.212778 6.65238 0.00262617 10.2481C-0.0203214 10.6244 0.107882 10.9941 0.357237 11.2686C0.6066 11.5432 0.954483 11.6988 1.31855 11.6979H9.84134V18.211C9.84134 18.5876 10.1357 18.8926 10.4992 18.8926C10.8626 18.8926 11.157 18.5876 11.157 18.211V11.7115H19.6798C19.5638 13.5227 18.9476 15.2613 17.9046 16.7197C16.8619 18.1784 15.436 19.2955 13.7979 19.9382C14.8113 18.5746 15.5786 16.5203 15.9384 14.0617C15.9736 13.8207 15.9999 13.5754 16.0262 13.33L16.0259 13.3297C16.0335 13.265 16.014 13.1997 15.9717 13.1512C15.9298 13.1023 15.8696 13.0748 15.8065 13.0751H14.9293C14.8195 13.0767 14.7277 13.1619 14.7145 13.2751C14.6925 13.4704 14.6662 13.666 14.6399 13.8613C14.0696 17.752 12.3283 20.5745 10.4993 20.5745C8.49919 20.5745 6.76651 17.3931 6.29717 13.2751C6.28371 13.1603 6.18948 13.0744 6.0778 13.0751H5.20061C5.13758 13.0747 5.07731 13.1023 5.03538 13.1511C4.99347 13.1996 4.97358 13.265 4.98123 13.3296C5.27526 16.0568 6.08212 18.3927 7.20956 19.9334C4.66604 18.9167 2.68436 16.7901 1.79245 14.1203C1.58378 13.4618 1.08811 12.9431 0.454461 12.7206L0.26599 12.6569C0.221625 12.6417 0.172977 12.6518 0.137793 12.6835C0.102608 12.7152 0.0863895 12.764 0.0949562 12.8116C0.620908 16.2254 2.67764 19.1789 5.63841 20.7723C8.59957 22.3657 12.1142 22.4104 15.1121 20.8928C18.1097 19.3751 20.2358 16.4745 20.8422 13.0751C20.9147 12.6601 20.9658 12.2413 20.9958 11.8206C21.0252 11.4404 20.8997 11.0651 20.6497 10.7851C20.3995 10.5055 20.0479 10.347 19.6798 10.3483L19.6796 10.3481Z" fill="url(#paint0_linear_2895_763)"/>
<defs>
<linearGradient id="paint0_linear_2895_763" x1="0.235955" y1="10.0833" x2="21.0025" y2="10.1441" gradientUnits="userSpaceOnUse">
<stop stop-color="#199E5E"/>
<stop offset="1" stop-color="#0F979F"/>
</linearGradient>
</defs>
</svg>
