<svg width="17" height="18" viewBox="0 0 17 18" fill="none" xmlns="http://www.w3.org/2000/svg">
<path opacity="0.5" d="M15.814 8.46663H8.96531V3.07443C8.96531 2.76654 8.72879 2.51674 8.4367 2.51674C8.14462 2.51674 7.9081 2.76654 7.9081 3.07443V8.46663H1.0632C1.15663 6.98264 1.65328 5.5586 2.49317 4.36439C3.33332 3.17019 4.4815 2.25634 5.80056 1.73208C4.89823 3.09801 4.31703 4.67098 4.10504 6.32092C4.06275 6.5925 4.02759 6.86746 3.99932 7.14267C3.99317 7.19558 4.00915 7.24902 4.04284 7.2887C4.07652 7.32865 4.12496 7.35122 4.17561 7.35096H4.88049C4.96875 7.34966 5.04251 7.27988 5.05309 7.18728C5.07767 6.95668 5.10595 6.72998 5.14111 6.50299C5.63824 3.39057 6.99171 1.21505 8.43691 1.21505C9.88211 1.21505 11.2568 3.39057 11.7291 6.50299C11.7642 6.7297 11.7925 6.95666 11.8208 7.18728H11.8205C11.8296 7.28066 11.9044 7.35148 11.9934 7.35096H12.6983C12.7489 7.35122 12.7973 7.32865 12.831 7.2887C12.8647 7.24902 12.8807 7.19559 12.8745 7.14267C12.8463 6.86746 12.8111 6.59224 12.7688 6.32092C12.5586 4.67224 11.9786 3.10033 11.077 1.73566C13.1113 2.55847 14.7003 4.28259 15.4229 6.45087C15.6253 7.02309 16.093 7.44487 16.6601 7.56652C16.6945 7.57301 16.7299 7.56134 16.755 7.53566C16.7801 7.50998 16.7919 7.47314 16.787 7.43657C16.3211 4.53033 14.5255 2.05447 11.9887 0.820282C9.45159 -0.413902 6.50095 -0.24736 4.10338 1.26565C1.70594 2.77867 0.170982 5.44286 0.00211031 8.38482C-0.0163297 8.69271 0.0866911 8.99516 0.287065 9.21978C0.487446 9.44441 0.766995 9.57177 1.05955 9.571H7.90822V14.8999C7.90822 15.2081 8.14474 15.4576 8.43683 15.4576C8.72891 15.4576 8.96543 15.2081 8.96543 14.8999V9.58215H15.8141C15.7209 11.064 15.2257 12.4865 14.3876 13.6797C13.5497 14.8732 12.4039 15.7873 11.0876 16.3131C11.9019 15.1974 12.5185 13.5166 12.8076 11.505C12.8359 11.3079 12.8571 11.1071 12.8782 10.9063L12.878 10.9061C12.8841 10.8532 12.8684 10.7997 12.8344 10.76C12.8008 10.7201 12.7523 10.6975 12.7017 10.6978H11.9968C11.9085 10.6991 11.8348 10.7689 11.8242 10.8615C11.8065 11.0212 11.7853 11.1813 11.7642 11.3411C11.3059 14.5244 9.90667 16.8337 8.43692 16.8337C6.82971 16.8337 5.43737 14.2307 5.06023 10.8614C5.04941 10.7675 4.97369 10.6972 4.88394 10.6978H4.17906C4.12841 10.6975 4.07998 10.7201 4.04629 10.76C4.01261 10.7997 3.99663 10.8531 4.00277 10.9061C4.23905 13.1374 4.88742 15.0485 5.7934 16.3091C3.7495 15.4773 2.15708 13.7373 1.44036 11.553C1.27268 11.0142 0.874377 10.5898 0.365192 10.4078L0.213742 10.3556C0.178091 10.3432 0.139 10.3515 0.110726 10.3774C0.0824528 10.4034 0.0694201 10.4433 0.0763041 10.4822C0.498944 13.2753 2.15168 15.6918 4.53087 16.9955C6.91037 18.2992 9.73462 18.3358 12.1436 17.0941C14.5524 15.8524 16.2609 13.4792 16.7482 10.6978C16.8065 10.3582 16.8475 10.0156 16.8716 9.67138C16.8952 9.36037 16.7944 9.05325 16.5935 8.82419C16.3924 8.59541 16.1099 8.46572 15.8141 8.46676L15.814 8.46663Z" fill="white"/>
</svg>
