<svg width="29" height="29" viewBox="0 0 29 29" fill="none" xmlns="http://www.w3.org/2000/svg">
<rect opacity="0.25" width="29" height="29" rx="9" fill="url(#paint0_linear)"/>
<path d="M19.4583 6H9.54168C7.58664 6.00236 6.00236 7.58664 6 9.54168V19.4584C6.00236 21.4134 7.58664 22.9977 9.54168 23H19.4584C21.4134 22.9977 22.9977 21.4134 23 19.4583V9.54168C22.9977 7.58664 21.4134 6.00236 19.4583 6ZM20.1667 11.7226L13.6118 18.2776C13.0586 18.8309 12.1616 18.8311 11.6083 18.278C11.6081 18.2778 11.608 18.2777 11.6079 18.2776L8.83332 15.5037C8.55614 15.2266 8.55614 14.7772 8.83332 14.5C9.1105 14.2229 9.55987 14.2229 9.83702 14.5L12.6108 17.2739L19.1665 10.7189C19.4436 10.4427 19.8922 10.4435 20.1684 10.7207C20.4446 10.9979 20.4438 11.4464 20.1667 11.7226Z" fill="url(#paint1_linear)"/>
<defs>
<linearGradient id="paint0_linear" x1="0" y1="0" x2="33.5305" y2="6.86197" gradientUnits="userSpaceOnUse">
<stop stop-color="#A129FF"/>
<stop offset="1" stop-color="#7B61FF"/>
</linearGradient>
<linearGradient id="paint1_linear" x1="6" y1="6" x2="25.6558" y2="10.0225" gradientUnits="userSpaceOnUse">
<stop stop-color="#A129FF"/>
<stop offset="1" stop-color="#7B61FF"/>
</linearGradient>
</defs>
</svg>
