<svg id="icon-ranking" width="17" height="18" viewBox="0 0 17 18" fill="currentColor" xmlns="http://www.w3.org/2000/svg">
<g clip-path="url(#clip0)">
<path d="M10.6895 11.8333C15.3432 11.8078 17 9.34282 17 7.22916C16.9996 6.66253 16.805 6.11314 16.4488 5.67249C16.0926 5.23184 15.5961 4.92652 15.0422 4.80737C15.1385 4.53324 15.2221 4.28178 15.278 4.09124C15.4017 3.67683 15.426 3.23911 15.3489 2.81356C15.2719 2.38801 15.0957 1.98659 14.8346 1.64182C14.5714 1.28616 14.2282 0.99746 13.8327 0.799092C13.4372 0.600723 13.0005 0.498259 12.558 0.499991H4.44196C3.9995 0.498259 3.56284 0.600723 3.16734 0.799092C2.77183 0.99746 2.42858 1.28616 2.16537 1.64182C1.90429 1.98659 1.72809 2.38801 1.65105 2.81356C1.57402 3.23911 1.59831 3.67683 1.72196 4.09124C1.77792 4.28178 1.86362 4.53324 1.95783 4.80737C1.40387 4.92652 0.907441 5.23184 0.551209 5.67249C0.194978 6.11314 0.000443615 6.66253 0 7.22916C0 9.34282 1.65679 11.8078 6.31054 11.8333C6.35191 12.0484 6.37349 12.2667 6.375 12.4857V14.6667C6.38717 14.8559 6.35887 15.0455 6.29198 15.2229C6.22509 15.4003 6.12115 15.5614 5.98709 15.6954C5.85303 15.8295 5.69194 15.9334 5.51454 16.0003C5.33715 16.0672 5.14753 16.0955 4.95833 16.0833H4.25C4.06214 16.0833 3.88197 16.158 3.74913 16.2908C3.61629 16.4236 3.54167 16.6038 3.54167 16.7917C3.54167 16.9795 3.61629 17.1597 3.74913 17.2925C3.88197 17.4254 4.06214 17.5 4.25 17.5H12.75C12.9379 17.5 13.118 17.4254 13.2509 17.2925C13.3837 17.1597 13.4583 16.9795 13.4583 16.7917C13.4583 16.6038 13.3837 16.4236 13.2509 16.2908C13.118 16.158 12.9379 16.0833 12.75 16.0833H12.0473C11.8577 16.0961 11.6676 16.0683 11.4896 16.0017C11.3116 15.9351 11.1499 15.8313 11.0153 15.6972C10.8806 15.5631 10.7762 15.4018 10.7089 15.224C10.6416 15.0463 10.613 14.8563 10.625 14.6667V12.485C10.6265 12.2663 10.6481 12.0481 10.6895 11.8333ZM14.5208 6.16666C14.8026 6.16666 15.0729 6.2786 15.2721 6.47786C15.4714 6.67711 15.5833 6.94737 15.5833 7.22916C15.5833 8.66991 14.4436 10.2042 11.3078 10.3954C11.4647 10.1814 11.6458 9.9862 11.8476 9.81387C12.9767 8.79669 13.8766 7.55105 14.4875 6.15957C14.4989 6.16028 14.5088 6.16666 14.5208 6.16666ZM1.41667 7.22916C1.41667 6.94737 1.52861 6.67711 1.72787 6.47786C1.92712 6.2786 2.19737 6.16666 2.47917 6.16666C2.49121 6.16666 2.50112 6.16028 2.51246 6.15957C3.12344 7.55105 4.02332 8.79669 5.15242 9.81387C5.3542 9.9862 5.53533 10.1814 5.69217 10.3954C2.55638 10.2042 1.41667 8.66991 1.41667 7.22916ZM7.44671 16.0833C7.68088 15.6483 7.79965 15.1606 7.79167 14.6667V12.4857C7.79413 11.773 7.64137 11.0683 7.344 10.4206C7.04664 9.77293 6.6118 9.19776 6.06971 8.73507C4.62933 7.35847 3.59524 5.61228 3.08054 3.68749C3.02006 3.48432 3.00842 3.26974 3.04658 3.06123C3.08474 2.85271 3.17161 2.65616 3.30012 2.48757C3.43226 2.30945 3.60449 2.16494 3.80286 2.06575C4.00123 1.96656 4.22017 1.91549 4.44196 1.91666H12.558C12.7801 1.91582 12.9992 1.96733 13.1976 2.06702C13.3959 2.1667 13.568 2.31176 13.6999 2.49041C13.8284 2.65899 13.9153 2.85554 13.9534 3.06406C13.9916 3.27258 13.9799 3.48716 13.9195 3.69032C13.4043 5.6141 12.3702 7.35925 10.9303 8.73507C10.3882 9.19762 9.95339 9.77267 9.65602 10.4202C9.35865 11.0678 9.20588 11.7724 9.20833 12.485V14.6667C9.20035 15.1606 9.31911 15.6483 9.55329 16.0833H7.44671Z" fill="currentColor"/>
</g>
<defs>
<clipPath id="clip0">
<rect width="17" height="17" fill="currentColor" transform="translate(0 0.5)"/>
</clipPath>
</defs>
</svg>
