<svg width="20" height="19" viewBox="0 0 20 19" fill="none" xmlns="http://www.w3.org/2000/svg">
<path d="M19.1668 0.776766H10.8349C10.6139 0.776766 10.4019 0.868192 10.2457 1.03093C10.0894 1.19367 10.0017 1.41439 10.0017 1.64454V4.48216L8.00199 0.872221C7.85607 0.60718 7.64555 0.386956 7.39172 0.233804C7.13789 0.0806516 6.84974 0 6.55639 0C6.26304 0 5.97489 0.0806516 5.72107 0.233804C5.46724 0.386956 5.25672 0.60718 5.1108 0.872221L0.111627 9.88838C0.0384988 10.0203 0 10.1699 0 10.3223C0 10.4746 0.0384988 10.6242 0.111627 10.7562C0.185035 10.8886 0.290738 10.9985 0.418031 11.0746C0.545325 11.1508 0.68969 11.1906 0.836507 11.19H4.41091C4.24914 11.7531 4.16773 12.3379 4.16929 12.9256C4.16929 14.5366 4.78377 16.0817 5.87755 17.2208C6.97133 18.36 8.45482 19 10.0017 19C11.5485 19 13.032 18.36 14.1258 17.2208C15.2195 16.0817 15.834 14.5366 15.834 12.9256C15.8356 12.3379 15.7542 11.7531 15.5924 11.19H19.1668C19.3878 11.19 19.5997 11.0986 19.756 10.9359C19.9122 10.7731 20 10.5524 20 10.3223V1.64454C20 1.41439 19.9122 1.19367 19.756 1.03093C19.5997 0.868192 19.3878 0.776766 19.1668 0.776766ZM2.27794 9.4545L6.55223 1.73999L9.41009 6.85118C8.57683 6.94776 7.77337 7.2303 7.05444 7.67955C6.33552 8.12881 5.71805 8.73421 5.24411 9.4545H2.27794ZM10.0017 17.2645C9.1777 17.2645 8.37225 17.01 7.68716 16.5332C7.00207 16.0565 6.46811 15.3788 6.15279 14.586C5.83748 13.7932 5.75498 12.9208 5.91573 12.0791C6.07647 11.2375 6.47324 10.4643 7.05587 9.85755C7.63849 9.25075 8.38079 8.83751 9.18891 8.67009C9.99703 8.50268 10.8347 8.5886 11.5959 8.917C12.3571 9.2454 13.0078 9.80152 13.4655 10.515C13.9233 11.2286 14.1676 12.0674 14.1676 12.9256C14.1676 14.0763 13.7287 15.1799 12.9474 15.9936C12.1662 16.8073 11.1065 17.2645 10.0017 17.2645ZM18.3336 9.4545H14.7842C14.0275 8.32939 12.9302 7.50129 11.668 7.10283V2.51231H18.3336V9.4545Z" fill="#7B61FF"/>
</svg>
