<svg xmlns="http://www.w3.org/2000/svg" width="19" height="19" viewBox="0 0 19 19" fill="none">
<path d="M14.2493 5.54229C14.2493 5.69886 14.2029 5.85192 14.1159 5.9821C14.0289 6.11228 13.9053 6.21375 13.7606 6.27366C13.616 6.33358 13.4568 6.34926 13.3033 6.31871C13.1497 6.28817 13.0087 6.21277 12.8979 6.10206C12.7872 5.99135 12.7118 5.85029 12.6813 5.69673C12.6507 5.54317 12.6664 5.384 12.7263 5.23935C12.7863 5.0947 12.8877 4.97106 13.0179 4.88408C13.1481 4.79709 13.3011 4.75066 13.4577 4.75066C13.6677 4.75066 13.869 4.83407 14.0175 4.98253C14.1659 5.13099 14.2493 5.33234 14.2493 5.54229ZM11.0828 7.12555C10.9262 7.12555 10.7732 7.17198 10.643 7.25897C10.5128 7.34595 10.4114 7.46959 10.3514 7.61424C10.2915 7.75889 10.2759 7.91806 10.3064 8.07162C10.3369 8.22518 10.4123 8.36624 10.5231 8.47695C10.6338 8.58766 10.7748 8.66306 10.9284 8.6936C11.0819 8.72415 11.2411 8.70847 11.3858 8.64855C11.5304 8.58864 11.654 8.48717 11.741 8.35699C11.828 8.22681 11.8744 8.07375 11.8744 7.91718C11.8744 7.70723 11.791 7.50588 11.6426 7.35742C11.4941 7.20896 11.2928 7.12555 11.0828 7.12555ZM8.70793 9.50044C8.55136 9.50044 8.3983 9.54687 8.26812 9.63386C8.13794 9.72084 8.03647 9.84448 7.97656 9.98913C7.91664 10.1338 7.90096 10.293 7.93151 10.4465C7.96205 10.6001 8.03745 10.7411 8.14816 10.8518C8.25887 10.9626 8.39993 11.0379 8.55349 11.0685C8.70705 11.099 8.86622 11.0834 9.01087 11.0234C9.15552 10.9635 9.27916 10.8621 9.36614 10.7319C9.45313 10.6017 9.49956 10.4486 9.49956 10.2921C9.49956 10.0821 9.41615 9.88076 9.26769 9.73231C9.11924 9.58385 8.91788 9.50044 8.70793 9.50044ZM18.893 2.34253L18.8337 2.50956C17.6446 5.80907 16.5039 8.9463 14.2493 11.7328V11.8753C14.2479 13.0879 13.9938 14.2868 13.5031 15.3956C13.0124 16.5045 12.296 17.4988 11.3995 18.3152C10.9249 18.7531 10.3036 18.9974 9.65788 19C8.98585 18.9979 8.34202 18.7297 7.86726 18.254C7.39251 17.7784 7.1255 17.1341 7.12467 16.462V15.5509C6.54052 15.3625 6.00878 15.0395 5.57228 14.608L5.54141 14.578L3.7262 16.3932C3.5769 16.5374 3.37693 16.6172 3.16937 16.6154C2.96181 16.6136 2.76325 16.5303 2.61648 16.3835C2.46971 16.2367 2.38645 16.0382 2.38465 15.8306C2.38284 15.6231 2.46264 15.4231 2.60684 15.2738L4.42204 13.4586L4.39117 13.4285C3.95939 12.9915 3.63571 12.4596 3.44596 11.8753H2.66225C1.95651 11.8747 1.27984 11.5941 0.780729 11.0952C0.281619 10.5962 0.000838393 9.91961 0 9.21387C0.00140029 8.52461 0.267178 7.86215 0.742549 7.36304C1.5702 6.51304 2.56392 5.84246 3.66189 5.39303C4.75985 4.9436 5.93856 4.72495 7.12467 4.75066H7.26716C10.0537 2.49689 13.1886 1.35615 16.4865 0.167919L16.6575 0.106963C16.9695 -0.00775886 17.3079 -0.0307604 17.6326 0.0406764C17.9573 0.112113 18.2548 0.275003 18.4899 0.510099C18.725 0.745195 18.8879 1.04267 18.9593 1.36738C19.0308 1.69209 19.0078 2.03047 18.893 2.34253ZM2.66225 10.2921H3.24568C3.30515 9.59458 3.54854 8.92533 3.95102 8.35258C4.39279 7.71698 4.87094 7.10747 5.38308 6.52708C4.05515 6.80195 2.84112 7.47131 1.89991 8.44757C1.69968 8.65274 1.58626 8.92721 1.58326 9.21387C1.58368 9.49984 1.69752 9.77396 1.8998 9.97609C2.10208 10.1782 2.37629 10.2919 2.66225 10.2921ZM12.4286 13.6581C11.8608 14.1551 11.2656 14.62 10.6458 15.0506C10.0726 15.4491 9.40388 15.6884 8.70793 15.744V16.462C8.70835 16.7152 8.80917 16.958 8.9883 17.1369C9.16742 17.3159 9.41021 17.4165 9.66342 17.4167C9.91445 17.413 10.155 17.3156 10.3379 17.1436C11.3584 16.2094 12.0849 14.9983 12.4286 13.6581ZM17.366 1.63402C17.3449 1.61055 17.317 1.59427 17.2862 1.58746C17.2554 1.58065 17.2232 1.58364 17.1942 1.59602L17.024 1.65777C13.1893 3.03916 9.87796 4.23294 7.02651 7.0836C6.37241 7.75812 5.77706 8.48721 5.24692 9.26295C4.92446 9.72065 4.77408 10.2776 4.82231 10.8354C4.87054 11.3931 5.1143 11.916 5.51053 12.3115L6.69165 13.491C7.087 13.887 7.60947 14.1306 8.16691 14.179C8.72436 14.2274 9.28098 14.0774 9.73863 13.7555C10.5139 13.2254 11.2425 12.63 11.9164 11.9759C14.7663 9.126 15.9616 5.81145 17.3438 1.97521L17.404 1.80818C17.4168 1.77884 17.42 1.74621 17.4132 1.71494C17.4064 1.68367 17.3898 1.65535 17.366 1.63402Z" fill="#5E5E5E"/>
</svg>