<svg width="54" height="54" viewBox="0 0 46 46" fill="none" xmlns="http://www.w3.org/2000/svg">
<rect opacity="0.25" width="46" height="46" rx="9" fill="url(#paint0_linear)"/>
<path fill-rule="evenodd" clip-rule="evenodd" d="M22 13.4C22 12.6268 22.6268 12 23.4 12H25.6C26.3732 12 27 12.6268 27 13.4V32.6C27 33.3732 26.3732 34 25.6 34H23.4C22.6268 34 22 33.3732 22 32.6V13.4ZM14 24.4C14 23.6268 14.6268 23 15.4 23H17.6C18.3732 23 19 23.6268 19 24.4V32.6C19 33.3732 18.3732 34 17.6 34H15.4C14.6268 34 14 33.3732 14 32.6V24.4ZM31.4 16C30.6268 16 30 16.6268 30 17.4V32.6C30 33.3732 30.6268 34 31.4 34H33.6C34.3732 34 35 33.3732 35 32.6V17.4C35 16.6268 34.3732 16 33.6 16H31.4Z" fill="url(#paint1_linear)"/>
<defs>
<linearGradient id="paint0_linear" x1="0" y1="0" x2="53.1863" y2="10.8845" gradientUnits="userSpaceOnUse">
<stop stop-color="#A129FF"/>
<stop offset="1" stop-color="#7B61FF"/>
</linearGradient>
<linearGradient id="paint1_linear" x1="14" y1="12" x2="38.3677" y2="16.7601" gradientUnits="userSpaceOnUse">
<stop stop-color="#A129FF"/>
<stop offset="1" stop-color="#7B61FF"/>
</linearGradient>
</defs>
</svg>
