<svg width="20" height="23" viewBox="0 0 20 23" fill="none" xmlns="http://www.w3.org/2000/svg">
<path d="M8.54167 11.5C8.79583 11.5 9.03959 11.601 9.21931 11.7807C9.39903 11.9604 9.5 12.2042 9.5 12.4583C9.5 12.7125 9.39903 12.9563 9.21931 13.136C9.03959 13.3157 8.79583 13.4167 8.54167 13.4167H5.66667C5.4125 13.4167 5.16875 13.3157 4.98902 13.136C4.8093 12.9563 4.70833 12.7125 4.70833 12.4583C4.70833 12.2042 4.8093 11.9604 4.98902 11.7807C5.16875 11.601 5.4125 11.5 5.66667 11.5H8.54167ZM14.2917 8.625C14.2917 8.37083 14.1907 8.12708 14.011 7.94736C13.8313 7.76763 13.5875 7.66667 13.3333 7.66667H5.66667C5.4125 7.66667 5.16875 7.76763 4.98902 7.94736C4.8093 8.12708 4.70833 8.37083 4.70833 8.625C4.70833 8.87917 4.8093 9.12292 4.98902 9.30264C5.16875 9.48237 5.4125 9.58333 5.66667 9.58333H13.3333C13.5875 9.58333 13.8313 9.48237 14.011 9.30264C14.1907 9.12292 14.2917 8.87917 14.2917 8.625ZM5.66667 5.75H13.3333C13.5875 5.75 13.8313 5.64903 14.011 5.46931C14.1907 5.28959 14.2917 5.04583 14.2917 4.79167C14.2917 4.5375 14.1907 4.29375 14.011 4.11402C13.8313 3.9343 13.5875 3.83333 13.3333 3.83333H5.66667C5.4125 3.83333 5.16875 3.9343 4.98902 4.11402C4.8093 4.29375 4.70833 4.5375 4.70833 4.79167C4.70833 5.04583 4.8093 5.28959 4.98902 5.46931C5.16875 5.64903 5.4125 5.75 5.66667 5.75ZM17.1667 18.6338V22.3071C17.1667 22.4438 17.1262 22.5775 17.0503 22.6912C16.9744 22.8049 16.8665 22.8935 16.7402 22.9458C16.6139 22.9981 16.4749 23.0118 16.3408 22.9851C16.2067 22.9584 16.0836 22.8926 15.987 22.7959L15.25 22.0599L14.513 22.7959C14.4164 22.8926 14.2933 22.9584 14.1592 22.9851C14.0251 23.0118 13.8861 22.9981 13.7598 22.9458C13.6335 22.8935 13.5256 22.8049 13.4497 22.6912C13.3738 22.5775 13.3333 22.4438 13.3333 22.3071V18.6338C12.6025 18.2139 12.031 17.5641 11.7078 16.7856C11.3847 16.007 11.3281 15.1435 11.5468 14.3294C11.7655 13.5154 12.2473 12.7965 12.9171 12.2848C13.5869 11.773 14.4071 11.4971 15.25 11.5C15.574 11.504 15.8961 11.5498 16.2083 11.6361V4.79167C16.2083 4.02917 15.9054 3.2979 15.3663 2.75873C14.8271 2.21957 14.0958 1.91667 13.3333 1.91667H5.66667C4.90417 1.91667 4.1729 2.21957 3.63373 2.75873C3.09457 3.2979 2.79167 4.02917 2.79167 4.79167V16.2917C2.79167 17.0542 3.09457 17.7854 3.63373 18.3246C4.1729 18.8638 4.90417 19.1667 5.66667 19.1667H10.4583C10.7125 19.1667 10.9563 19.2676 11.136 19.4474C11.3157 19.6271 11.4167 19.8708 11.4167 20.125C11.4167 20.3792 11.3157 20.6229 11.136 20.8026C10.9563 20.9824 10.7125 21.0833 10.4583 21.0833H5.66667C4.3963 21.0818 3.17841 20.5765 2.28013 19.6782C1.38185 18.7799 0.876522 17.562 0.875 16.2917V4.79167C0.876522 3.5213 1.38185 2.30341 2.28013 1.40513C3.17841 0.506845 4.3963 0.0015217 5.66667 0L13.3333 0C14.6037 0.0015217 15.8216 0.506845 16.7199 1.40513C17.6182 2.30341 18.1235 3.5213 18.125 4.79167V12.8244C18.5004 13.246 18.7768 13.7462 18.9338 14.2884C19.0909 14.8305 19.1248 15.401 19.0329 15.9579C18.941 16.5149 18.7258 17.0443 18.4029 17.5073C18.0799 17.9703 17.6576 18.3552 17.1667 18.6338ZM17.1667 15.3333C17.1667 14.9543 17.0543 14.5837 16.8436 14.2685C16.633 13.9533 16.3337 13.7076 15.9835 13.5626C15.6333 13.4175 15.2479 13.3795 14.8761 13.4535C14.5043 13.5274 14.1628 13.71 13.8947 13.978C13.6267 14.2461 13.4441 14.5876 13.3702 14.9594C13.2962 15.3312 13.3342 15.7166 13.4792 16.0668C13.6243 16.417 13.87 16.7164 14.1852 16.927C14.5003 17.1376 14.8709 17.25 15.25 17.25C15.7583 17.25 16.2458 17.0481 16.6053 16.6886C16.9647 16.3292 17.1667 15.8417 17.1667 15.3333Z" fill="#5E5E5E"/>
</svg>
