<svg xmlns="http://www.w3.org/2000/svg" width="21" height="20" viewBox="0 0 21 20" fill="none">
<path fill-rule="evenodd" clip-rule="evenodd" d="M19.8784 3.3975C19.644 3.1162 19.3506 2.88996 19.0189 2.73485C18.6872 2.57973 18.3254 2.49955 17.9593 2.5H4.48593L4.45093 2.2075C4.3793 1.59951 4.08708 1.03894 3.62967 0.632065C3.17226 0.225186 2.58145 0.000284828 1.96926 0H1.78426C1.56325 0 1.35129 0.0877974 1.19501 0.244078C1.03873 0.400358 0.950928 0.61232 0.950928 0.833333C0.950928 1.05435 1.03873 1.26631 1.19501 1.42259C1.35129 1.57887 1.56325 1.66667 1.78426 1.66667H1.96926C2.17337 1.66669 2.37038 1.74163 2.5229 1.87726C2.67543 2.0129 2.77288 2.19979 2.79676 2.4025L3.94343 12.1525C4.06247 13.1665 4.54966 14.1015 5.31252 14.78C6.07538 15.4585 7.06081 15.8334 8.08176 15.8333H16.7843C17.0053 15.8333 17.2172 15.7455 17.3735 15.5893C17.5298 15.433 17.6176 15.221 17.6176 15C17.6176 14.779 17.5298 14.567 17.3735 14.4107C17.2172 14.2545 17.0053 14.1667 16.7843 14.1667H8.08176C7.56597 14.1652 7.06326 14.0043 6.64254 13.7059C6.22182 13.4075 5.90369 12.9863 5.73176 12.5H15.6651C16.642 12.5001 17.5879 12.1569 18.3374 11.5304C19.087 10.9039 19.5926 10.0339 19.7659 9.0725L20.4201 5.44417C20.4854 5.08417 20.4707 4.71422 20.3771 4.36053C20.2835 4.00684 20.1133 3.67806 19.8784 3.3975ZM18.7843 5.14833L18.1293 8.77667C18.0252 9.35417 17.7213 9.87666 17.2708 10.2527C16.8203 10.6287 16.2519 10.8342 15.6651 10.8333H5.46676L4.68259 4.16667H17.9593C18.0817 4.16594 18.2028 4.19218 18.3139 4.24355C18.425 4.29491 18.5234 4.37012 18.6022 4.46384C18.681 4.55756 18.7381 4.66748 18.7696 4.78578C18.801 4.90409 18.8061 5.02787 18.7843 5.14833ZM6.78426 20C7.70474 20 8.45093 19.2538 8.45093 18.3333C8.45093 17.4129 7.70474 16.6667 6.78426 16.6667C5.86379 16.6667 5.11759 17.4129 5.11759 18.3333C5.11759 19.2538 5.86379 20 6.78426 20ZM16.7843 18.3333C16.7843 19.2538 16.0381 20 15.1176 20C14.1971 20 13.4509 19.2538 13.4509 18.3333C13.4509 17.4129 14.1971 16.6667 15.1176 16.6667C16.0381 16.6667 16.7843 17.4129 16.7843 18.3333Z" fill="#5E5E5E"/>
</svg>