<svg width="18" height="18" viewBox="0 0 18 18" fill="none" xmlns="http://www.w3.org/2000/svg">
<path d="M17.9996 17.2496C17.9996 17.4485 17.9206 17.6393 17.7799 17.7799C17.6393 17.9206 17.4485 17.9996 17.2496 17.9996H0.749622C0.550709 17.9996 0.359944 17.9206 0.219292 17.7799C0.0786394 17.6393 -0.000378261 17.4485 -0.000378261 17.2496C-0.000378261 17.0507 0.0786394 16.8599 0.219292 16.7193C0.359944 16.5786 0.550709 16.4996 0.749622 16.4996H17.2496C17.4485 16.4996 17.6393 16.5786 17.7799 16.7193C17.9206 16.8599 17.9996 17.0507 17.9996 17.2496ZM0.217872 6.41362C0.0562635 6.11386 -0.0186073 5.77499 0.00166206 5.43505C0.0219314 5.09511 0.136539 4.76754 0.332622 4.48911C0.653065 4.01895 1.0822 3.63304 1.58362 3.36411L7.20937 0.436114C7.76232 0.148587 8.37638 -0.00152588 8.99962 -0.00152588C9.62286 -0.00152588 10.2369 0.148587 10.7899 0.436114L16.4149 3.36636C16.9163 3.63529 17.3454 4.0212 17.6659 4.49136C17.862 4.76979 17.9766 5.09736 17.9968 5.4373C18.0171 5.77724 17.9422 6.11611 17.7806 6.41587C17.6066 6.74499 17.3457 7.02007 17.0262 7.21116C16.7067 7.40225 16.3409 7.50202 15.9686 7.49962H15.7496V13.4996H16.4996C16.6985 13.4996 16.8893 13.5786 17.0299 13.7193C17.1706 13.8599 17.2496 14.0507 17.2496 14.2496C17.2496 14.4485 17.1706 14.6393 17.0299 14.7799C16.8893 14.9206 16.6985 14.9996 16.4996 14.9996H1.49962C1.30071 14.9996 1.10994 14.9206 0.969292 14.7799C0.828639 14.6393 0.749622 14.4485 0.749622 14.2496C0.749622 14.0507 0.828639 13.8599 0.969292 13.7193C1.10994 13.5786 1.30071 13.4996 1.49962 13.4996H2.24962V7.49962H2.03062C1.65799 7.50194 1.29188 7.4019 0.972213 7.21039C0.65255 7.01888 0.391616 6.74327 0.217872 6.41362ZM3.74962 13.4996H5.99962V7.49962H3.74962V13.4996ZM7.49962 7.49962V13.4996H10.4996V7.49962H7.49962ZM14.2496 7.49962H11.9996V13.4996H14.2496V7.49962ZM1.54687 5.71837C1.59393 5.80512 1.66396 5.87726 1.74928 5.92687C1.83461 5.97648 1.93194 6.00164 2.03062 5.99962H15.9686C16.0673 6.00164 16.1646 5.97648 16.25 5.92687C16.3353 5.87726 16.4053 5.80512 16.4524 5.71837C16.4866 5.66104 16.5032 5.59486 16.5 5.52815C16.4968 5.46143 16.474 5.39715 16.4344 5.34337C16.2526 5.0733 16.0085 4.85102 15.7226 4.69536L10.0976 1.76511C9.75863 1.58918 9.3823 1.49734 9.00037 1.49734C8.61844 1.49734 8.24211 1.58918 7.90312 1.76511L2.27812 4.69536C1.99236 4.85152 1.74827 5.07401 1.56637 5.34412C1.52669 5.39767 1.50367 5.46174 1.5002 5.5283C1.49674 5.59487 1.51297 5.66098 1.54687 5.71837Z" fill="#5E5E5E"/>
</svg>
