<svg id="twitter" className="w-full h-full" viewBox="0 0 16 13" fill="currentColor" xmlns="http://www.w3.org/2000/svg">
<path d="M15.2785 1.4696C14.7103 1.71883 14.105 1.88403 13.4738 1.96424C14.1231 1.57655 14.6186 0.967324 14.8517 0.232997C14.2462 0.593952 13.5778 0.848913 12.8655 0.991192C12.2906 0.379098 11.4713 0 10.5775 0C8.84342 0 7.44732 1.40753 7.44732 3.13305C7.44732 3.38133 7.46833 3.62005 7.5199 3.84732C4.91586 3.72031 2.61167 2.47226 1.06376 0.571034C0.793528 1.0399 0.635013 1.57655 0.635013 2.15427C0.635013 3.23905 1.19364 4.20064 2.02631 4.75735C1.52307 4.7478 1.02939 4.60169 0.61114 4.37157C0.61114 4.38112 0.61114 4.39353 0.61114 4.40595C0.61114 5.92807 1.69687 7.19236 3.12064 7.48361C2.86567 7.55331 2.5878 7.58674 2.29942 7.58674C2.09888 7.58674 1.89645 7.57528 1.70642 7.53326C2.11226 8.77365 3.26388 9.68566 4.63321 9.7152C3.56753 10.5488 2.21443 11.0512 0.749602 11.0512C0.492732 11.0512 0.246366 11.0397 0 11.0081C1.38748 11.9029 3.03183 12.4138 4.80509 12.4138C10.5689 12.4138 13.7201 7.63926 13.7201 3.50069C13.7201 3.36223 13.7153 3.22854 13.7086 3.09581C14.3303 2.65464 14.8526 2.10366 15.2785 1.4696Z" fill="currentColor"/>
</svg>
