<svg width="34" height="27" viewBox="0 0 34 27" fill="none" xmlns="http://www.w3.org/2000/svg">
<g opacity="0.5">
<rect x="1" y="1" width="32" height="25" rx="6" fill="black"/>
<rect x="0.5" y="0.5" width="33" height="26" rx="6.5" stroke="white" stroke-opacity="0.5"/>
</g>
<path d="M24.5427 9.08305C24.4246 9.10274 24.3064 9.16183 24.2079 9.22091L21.1357 10.9933V15.5622L24.2276 17.3347C24.7987 17.6695 25.5077 17.4725 25.8425 16.9014C25.941 16.7242 26.0001 16.5272 26.0001 16.3106V10.2253C26.0001 9.49662 25.3108 8.90581 24.5427 9.08305Z" fill="white"/>
<path d="M18.1816 8H9.96936C8.88621 8 8 8.88621 8 9.96936V16.6061C8 17.6892 8.88621 18.5754 9.96936 18.5754H18.1816C19.2647 18.5754 20.1509 17.6892 20.1509 16.6061V9.96936C20.1509 8.86652 19.2647 8 18.1816 8Z" fill="white"/>
</svg>
