<svg width="55" height="55" viewBox="0 0 55 55" fill="none" xmlns="http://www.w3.org/2000/svg">
<rect width="55" height="55" rx="6" fill="#160F31"/>
<g filter="url(#filter0_d_0_1)">
<path d="M28 18.5714C28 17.7033 28.7273 17 29.625 17H39.375C40.2727 17 41 17.7033 41 18.5714C41 19.4396 40.2727 20.1429 39.375 20.1429H29.625C28.7273 20.1429 28 19.4396 28 18.5714ZM39.375 23.2857H29.625C28.7273 23.2857 28 23.989 28 24.8571C28 25.7253 28.7273 26.4286 29.625 26.4286H39.375C40.2727 26.4286 41 25.7253 41 24.8571C41 23.989 40.2727 23.2857 39.375 23.2857ZM39.375 29.5714H16.625C15.7273 29.5714 15 30.2747 15 31.1429C15 32.011 15.7273 32.7143 16.625 32.7143H39.375C40.2727 32.7143 41 32.011 41 31.1429C41 30.2747 40.2727 29.5714 39.375 29.5714ZM39.375 35.8571H16.625C15.7273 35.8571 15 36.5604 15 37.4286C15 38.2967 15.7273 39 16.625 39H39.375C40.2727 39 41 38.2967 41 37.4286C41 36.5604 40.2727 35.8571 39.375 35.8571ZM24.75 18.5714C24.75 17.704 24.0227 17 23.125 17H16.625C15.7273 17 15 17.704 15 18.5714V24.8571C15 25.7246 15.7273 26.4286 16.625 26.4286H23.125C24.0227 26.4286 24.75 25.7246 24.75 24.8571V18.5714Z" fill="url(#paint0_linear_0_1)"/>
</g>
<defs>
<filter id="filter0_d_0_1" x="9" y="11" width="38" height="34" filterUnits="userSpaceOnUse" color-interpolation-filters="sRGB">
<feFlood flood-opacity="0" result="BackgroundImageFix"/>
<feColorMatrix in="SourceAlpha" type="matrix" values="0 0 0 0 0 0 0 0 0 0 0 0 0 0 0 0 0 0 127 0" result="hardAlpha"/>
<feOffset/>
<feGaussianBlur stdDeviation="3"/>
<feColorMatrix type="matrix" values="0 0 0 0 0.482353 0 0 0 0 0.380392 0 0 0 0 1 0 0 0 0.3 0"/>
<feBlend mode="normal" in2="BackgroundImageFix" result="effect1_dropShadow_0_1"/>
<feBlend mode="normal" in="SourceGraphic" in2="effect1_dropShadow_0_1" result="shape"/>
</filter>
<linearGradient id="paint0_linear_0_1" x1="28" y1="17" x2="28" y2="39" gradientUnits="userSpaceOnUse">
<stop stop-color="#7B61FF"/>
<stop offset="1" stop-color="#DF61FF"/>
</linearGradient>
</defs>
</svg>
