<svg width="164" height="160" viewBox="0 0 164 160" fill="none" xmlns="http://www.w3.org/2000/svg">
<path d="M0 10C0 4.47715 4.47715 0 10 0H154C159.523 0 164 4.47715 164 10V160H0V10Z" fill="#0D0A18"/>
<g filter="url(#filter0_d)">
<path d="M66.2446 62.2136C66.5294 61.9288 66.991 61.9288 67.2758 62.2136L99.7865 94.7241C100.071 95.0089 100.071 95.4706 99.7865 95.7554L98.7555 96.7864C98.4707 97.0712 98.009 97.0712 97.7243 96.7864L92.1045 91.1667H69.3749C67.7641 91.1667 66.4582 89.8608 66.4582 88.25V72.2083C66.4582 70.5974 67.7641 69.2916 69.3749 69.2916H70.2294L65.2136 64.2758C64.9288 63.991 64.9288 63.5294 65.2136 63.2446L66.2446 62.2136ZM85.9693 64.9166C86.7369 64.9166 87.4889 65.2284 88.0315 65.7711L91.1248 68.8644C91.3961 69.1364 91.772 69.2916 92.1559 69.2916H95.6251C97.2338 69.2916 98.5418 70.6004 98.5418 72.2083V88.25C98.5418 88.7584 98.4009 89.2654 98.1346 89.7197C98.0199 89.9135 97.8219 90.0445 97.5983 90.073C97.567 90.0772 97.5364 90.0786 97.5058 90.0786C97.3135 90.0786 97.1276 90.0032 96.9902 89.865L89.613 82.4879C89.4194 82.2942 89.3503 82.008 89.435 81.7473C89.6715 81.0153 89.7918 80.2591 89.7918 79.5C89.7918 75.4796 86.5205 72.2083 82.5001 72.2083C81.7381 72.2083 80.9819 72.3279 80.2527 72.5657C79.9914 72.6512 79.7059 72.5828 79.5114 72.3877L75.4476 68.3232C75.1627 68.0384 75.1627 67.5769 75.4476 67.2921L76.9686 65.7711C77.5112 65.2285 78.2632 64.9166 79.0308 64.9166H85.9693ZM76.4241 75.4863C75.6435 76.6654 75.2083 78.0519 75.2083 79.4999C75.2083 83.5204 78.4796 86.7916 82.5 86.7916C83.9479 86.7916 85.3341 86.3566 86.5135 85.5756L85.4349 84.4971C84.5539 85.0216 83.5587 85.3333 82.4999 85.3333C79.2835 85.3333 76.6666 82.7171 76.6666 79.4999C76.6666 78.4416 76.9782 77.4463 77.5028 76.565L76.4241 75.4863ZM82.5655 73.6723C85.7606 73.7079 88.2914 76.2401 88.3278 79.4345C88.3313 79.7307 88.1547 79.9998 87.8813 80.1152C87.7901 80.1537 87.694 80.1722 87.5986 80.1722C87.4092 80.1722 87.2226 80.0981 87.083 79.9586L82.0415 74.917C81.8321 74.7077 81.7702 74.3915 81.8848 74.1181C82.0001 73.8446 82.3092 73.6865 82.5655 73.6723ZM94.1667 72.2083C93.3628 72.2083 92.7084 72.8619 92.7084 73.6666C92.7084 74.4712 93.3628 75.1249 94.1667 75.1249C94.9707 75.1249 95.6251 74.4713 95.6251 73.6666C95.6251 72.862 94.9707 72.2083 94.1667 72.2083Z" fill="url(#paint0_linear)"/>
</g>
<defs>
<filter id="filter0_d" x="59" y="56" width="47" height="47" filterUnits="userSpaceOnUse" color-interpolation-filters="sRGB">
<feFlood flood-opacity="0" result="BackgroundImageFix"/>
<feColorMatrix in="SourceAlpha" type="matrix" values="0 0 0 0 0 0 0 0 0 0 0 0 0 0 0 0 0 0 127 0" result="hardAlpha"/>
<feOffset/>
<feGaussianBlur stdDeviation="3"/>
<feColorMatrix type="matrix" values="0 0 0 0 0.482353 0 0 0 0 0.380392 0 0 0 0 1 0 0 0 0.3 0"/>
<feBlend mode="normal" in2="BackgroundImageFix" result="effect1_dropShadow"/>
<feBlend mode="normal" in="SourceGraphic" in2="effect1_dropShadow" result="shape"/>
</filter>
<linearGradient id="paint0_linear" x1="82.5" y1="62" x2="82.5" y2="97" gradientUnits="userSpaceOnUse">
<stop stop-color="#7B61FF"/>
<stop offset="1" stop-color="#DF61FF"/>
</linearGradient>
</defs>
</svg>
